<?xml version="1.0" encoding="UTF-8"?>
<svg version="1.1" xmlns="http://www.w3.org/2000/svg" width="512" height="512">
<path d="M0 0 C0.99773437 0.40089844 1.99546875 0.80179687 3.0234375 1.21484375 C13.62993374 5.91823861 21.944658 13.88311523 29 23 C29 23.66 29 24.32 29 25 C29.65484375 24.67386719 30.3096875 24.34773438 30.984375 24.01171875 C47.32193203 16.18907492 64.0545584 14.35868451 81.46875 19.6796875 C98.29723953 25.97175549 111.82792863 37.51259347 119.375 53.9375 C119.83648437 55.01902344 120.29796875 56.10054687 120.7734375 57.21484375 C121.96084541 60.12792928 121.96084541 60.12792928 124 63 C124.58990723 62.78778809 125.17981445 62.57557617 125.78759766 62.35693359 C132.4355001 60.14183122 138.3936019 59.52367685 145.375 59.625 C146.38796143 59.63515137 147.40092285 59.64530273 148.44458008 59.65576172 C166.22468952 60.02466146 180.53038605 66.66125622 193.1875 79.16015625 C204.29682325 91.09005451 210.15696579 104.80877815 210.14044189 121.05325317 C210.14489858 122.42387698 210.14489858 122.42387698 210.1494453 123.82219017 C210.15811983 126.8855384 210.15963955 129.94884749 210.16113281 133.01220703 C210.16576217 135.20869022 210.17078699 137.4051726 210.17617798 139.60165405 C210.18929984 145.57351733 210.1957475 151.54536937 210.20018864 157.51724482 C210.20312205 161.25406069 210.20722756 164.9908735 210.21169281 168.72768784 C210.22380504 179.09393978 210.23418383 189.46018957 210.2375679 199.82644844 C210.23778747 200.4896733 210.23800703 201.15289815 210.23823325 201.83622073 C210.23845153 202.50096475 210.23866981 203.16570877 210.2388947 203.85059655 C210.23933815 205.19743546 210.23978472 206.54427437 210.24023438 207.89111328 C210.2404558 208.55918081 210.24067723 209.22724835 210.24090537 209.91556035 C210.24484195 220.70800384 210.26225955 231.50037933 210.2855939 242.29279663 C210.30941246 253.3999419 210.32151766 264.50705154 210.32293582 275.61422241 C210.32397936 281.83941369 210.32978962 288.06450925 210.34775543 294.28967667 C210.36436166 300.15839971 210.3663313 306.02695641 210.35761642 311.89569473 C210.3568525 314.0356491 210.36110236 316.17561286 210.37107468 318.31554413 C210.44331114 334.80000877 209.12195336 350.73247568 204.6875 366.6875 C204.47585205 367.46528809 204.2642041 368.24307617 204.04614258 369.04443359 C196.14258538 397.27183432 182.01391648 423.15131112 162.109375 444.703125 C160.22100188 446.75935351 158.42019417 448.86286408 156.625 451 C132.1136461 478.92503561 94.80610946 497.04611712 59 505 C58.3373262 505.14870544 57.6746524 505.29741089 56.99189758 505.45062256 C39.92593958 509.06985414 22.40561405 508.45883115 5.05712891 508.39111328 C0.6490196 508.37407515 -3.7585442 508.38414091 -8.16663456 508.40143585 C-26.97466085 508.46407176 -45.40516469 508.18711992 -64 505 C-65.83377197 504.70198486 -65.83377197 504.70198486 -67.70458984 504.39794922 C-70.50797061 503.90783526 -73.28245961 503.35730691 -76.0625 502.75 C-77.531427 502.43313232 -77.531427 502.43313232 -79.0300293 502.10986328 C-128.97727451 490.96424653 -178.62810721 465.93594289 -214.32275391 428.67626953 C-216.00545735 426.99454583 -217.75634092 425.46431195 -219.5703125 423.92578125 C-225.55006574 418.72822736 -231.02152279 413.02360565 -236.578125 407.3828125 C-240.29217847 403.63458062 -243.99283352 399.93586363 -248 396.5 C-253.85966955 391.47574519 -259.16536808 385.87758088 -264.578125 380.3828125 C-269.55072448 375.3644529 -274.63075541 370.58931083 -280 366 C-291.70312706 355.51719901 -300.7986545 340.45374216 -302.22094727 324.52563477 C-303.09408418 304.57695888 -299.69036472 287.66283334 -286.1875 272.125 C-273.82427803 259.25677501 -258.74671878 252.07557103 -240.91650391 251.64624023 C-221.65842228 251.50598801 -207.76275158 256.51162192 -193 269 C-190.36558864 271.13932611 -187.71402634 273.25694872 -185.0625 275.375 C-184.41112061 275.89916504 -183.75974121 276.42333008 -183.08862305 276.96337891 C-182.472854 277.45757324 -181.85708496 277.95176758 -181.22265625 278.4609375 C-180.67359619 278.90228027 -180.12453613 279.34362305 -179.55883789 279.79833984 C-178.08815759 280.93204203 -176.5450574 281.96996174 -175 283 C-174.99761165 282.02669865 -174.99522329 281.05339729 -174.99276257 280.05060196 C-174.93389533 256.33760496 -174.85796789 232.62470897 -174.76428509 208.91182327 C-174.71937277 197.44431733 -174.67994756 185.97684212 -174.65356445 174.50927734 C-174.63054743 164.51091197 -174.59710802 154.51264424 -174.55129844 144.51435637 C-174.52741622 139.22328363 -174.50865468 133.93230731 -174.50238609 128.64118195 C-174.49631261 123.65399792 -174.47623127 118.66706042 -174.44572449 113.67996788 C-174.43698044 111.85638584 -174.43321409 110.03277153 -174.43499184 108.20916939 C-174.44774753 89.07510265 -170.90971012 72.40565818 -157.33007812 58.13256836 C-144.0218269 44.80851698 -128.38350261 38.26216552 -109.5625 37.5625 C-101.7795613 37.72747501 -94.43538283 39.86196951 -87 42 C-86.6596875 41.11699219 -86.319375 40.23398437 -85.96875 39.32421875 C-78.65260685 21.20898133 -67.1028781 7.59207384 -48.89453125 -0.35546875 C-33.69386811 -6.03776792 -14.98575737 -6.58465096 0 0 Z M-39.875 45.9375 C-44.13732439 51.08202641 -45.25009673 54.43170542 -45.24050903 61.20062256 C-45.24221788 61.92682903 -45.24392673 62.65303549 -45.24568737 63.40124822 C-45.248982 65.83498196 -45.23797911 68.26844009 -45.22705078 70.70214844 C-45.22648666 72.44655857 -45.22680324 74.19096917 -45.22793579 75.93537903 C-45.22851027 80.67263589 -45.21674048 85.40979174 -45.20278788 90.14702511 C-45.19029646 95.09713671 -45.18911127 100.04725056 -45.18673706 104.99737549 C-45.18051762 114.37187119 -45.16410051 123.74632031 -45.14403808 133.12079549 C-45.12169353 143.79298823 -45.11068928 154.46518317 -45.10064721 165.13739347 C-45.0797347 187.09162743 -45.04305265 209.04579753 -45 231 C-59.52 231 -74.04 231 -89 231 C-88.98428955 227.10380859 -88.9685791 223.20761719 -88.95239258 219.19335938 C-88.90267277 206.31719973 -88.86938849 193.44104153 -88.84456348 180.56481171 C-88.82911192 172.75832721 -88.80805523 164.95193382 -88.77368164 157.14550781 C-88.74372676 150.33933528 -88.72441257 143.53322875 -88.71773452 136.72699213 C-88.71383253 133.12501507 -88.70469832 129.52322682 -88.68280983 125.92131042 C-88.65854041 121.89472166 -88.6580339 117.8684586 -88.65942383 113.84179688 C-88.648638 112.65496307 -88.63785217 111.46812927 -88.6267395 110.24533081 C-88.66124628 101.00080111 -90.34272773 92.84797539 -97 86 C-101.78668734 82.37793078 -106.6021373 81.34341647 -112.54296875 81.6171875 C-118.12730092 82.48724243 -121.81331136 84.83968222 -125.8125 88.75 C-130.83082701 96.20580013 -131.43414738 102.60683192 -131.36076355 111.36413574 C-131.36332682 112.48986449 -131.3658901 113.61559323 -131.36853105 114.77543497 C-131.37346173 118.5372859 -131.35698723 122.29873308 -131.34057617 126.06054688 C-131.33972975 128.76120912 -131.34007333 131.46184685 -131.34190369 134.1625061 C-131.3434738 139.97155414 -131.33409209 145.78050078 -131.31719017 151.58952332 C-131.29276909 159.98829168 -131.28499173 168.38701122 -131.2812262 176.78581125 C-131.27466658 190.41355036 -131.25471874 204.04123549 -131.22631836 217.66894531 C-131.19876509 230.90396861 -131.17753772 244.13897723 -131.16479492 257.37402344 C-131.16400675 258.19035844 -131.16321858 259.00669344 -131.16240653 259.84776586 C-131.1584913 263.94323622 -131.15470021 268.03870668 -131.15097082 272.13417721 C-131.11989017 306.08949062 -131.06706774 340.04473868 -131 374 C-133.73237154 371.91663296 -136.46357605 369.83174127 -139.19458008 367.74658203 C-139.96445503 367.15960037 -140.73432999 366.57261871 -141.52753448 365.96784973 C-146.67030101 362.0397437 -151.73310254 358.03898191 -156.6875 353.875 C-162.33748228 349.17648362 -168.03945234 344.5628369 -173.83276367 340.04248047 C-178.0813168 336.72704067 -182.29705855 333.37305097 -186.5 330 C-191.85292458 325.70512357 -197.23383081 321.44894998 -202.64697266 317.23022461 C-205.85507152 314.71991212 -209.02022194 312.1671751 -212.15234375 309.5625 C-212.85560791 308.98040771 -213.55887207 308.39831543 -214.28344727 307.79858398 C-215.6345243 306.67712854 -216.98046697 305.54944521 -218.32006836 304.41430664 C-225.03414434 298.8514628 -232.023869 294.59199405 -241 295 C-247.62378331 296.45342008 -252.28074873 299.61215102 -256.25 305.125 C-258.8783171 310.13489423 -259.59582872 315.56928093 -258.62890625 321.13671875 C-256.35535568 328.3245277 -250.96509588 333.33061507 -245.38671875 338.12109375 C-239.41708505 343.29808472 -233.96357013 348.9915273 -228.421875 354.6171875 C-224.70782153 358.36541938 -221.00716648 362.06413637 -217 365.5 C-211.14033045 370.52425481 -205.83463192 376.12241912 -200.421875 381.6171875 C-195.97753396 386.10242738 -191.47880067 390.41995657 -186.68457031 394.52929688 C-184.62486868 396.32750595 -182.74800084 398.25944681 -180.875 400.25 C-175.06753058 406.11723755 -168.5937659 411.05820165 -162 416 C-161.42056641 416.43489746 -160.84113281 416.86979492 -160.24414062 417.31787109 C-146.66735747 427.43142397 -132.30540871 435.78510245 -117 443 C-115.91847656 443.51175781 -114.83695313 444.02351563 -113.72265625 444.55078125 C-82.50180455 458.59070365 -49.13340615 465.07288723 -15 465.203125 C-13.8030249 465.20882507 -12.6060498 465.21452515 -11.37280273 465.22039795 C-8.85515202 465.2297775 -6.33748942 465.23635358 -3.81982422 465.24023438 C-0.03720816 465.24990487 3.74485539 465.28098337 7.52734375 465.3125 C25.58310006 465.39212195 43.43206437 464.58498863 60.8125 459.25 C61.67593018 458.99178467 62.53936035 458.73356934 63.42895508 458.4675293 C84.12781483 452.07937025 101.90733755 441.42945432 118 427 C119.05034134 426.1278314 120.10373245 425.25932241 121.16015625 424.39453125 C124.90229374 421.23919386 127.88930889 417.76620073 131 414 C131.83789062 412.9996875 132.67578125 411.999375 133.5390625 410.96875 C147.64439414 393.81314039 157.04884528 374.66780198 162.875 353.25 C163.06618408 352.55535645 163.25736816 351.86071289 163.4543457 351.14501953 C167.10298209 336.69953312 167.30283562 322.0437262 167.30639648 307.24853516 C167.31403603 305.21316226 167.32246654 303.1777922 167.33161926 301.14242554 C167.35337582 295.6635317 167.36233583 290.18469356 167.36744571 284.70576143 C167.37110734 281.27633169 167.37735617 277.84691618 167.3844471 274.41749191 C167.4088619 262.43668739 167.42197921 250.45592578 167.42553711 238.47509766 C167.42918115 227.32995306 167.45915917 216.18508232 167.50094169 205.04002154 C167.53565237 195.44300958 167.55108557 185.84608856 167.55178314 176.24901426 C167.55257473 170.52889698 167.56126199 164.80906036 167.58978081 159.08900833 C167.61597943 153.71580701 167.61815642 148.34311909 167.60212517 142.96988297 C167.600313 141.00351337 167.60698031 139.03711404 167.62294388 137.07080841 C167.81352322 121.01333334 167.81352322 121.01333334 159.6875 107.5625 C152.68490496 103.49122382 147.05580339 102.04707797 139 104 C132.72595691 107.01636687 128.27020379 112.45915117 125.93313599 118.97401428 C124.59718633 123.84640453 124.73629862 128.68960986 124.77294922 133.70874023 C124.77251114 135.29035194 124.77251114 135.29035194 124.77206421 136.90391541 C124.77345214 140.37222664 124.78898824 143.84032026 124.8046875 147.30859375 C124.80841953 149.7199746 124.81126561 152.13135696 124.81326294 154.54273987 C124.82088438 160.87698584 124.84052017 167.21113951 124.8626709 173.54534912 C124.88316136 180.01394401 124.8922715 186.48255386 124.90234375 192.95117188 C124.92376741 205.63416158 124.9589375 218.31705866 125 231 C110.81 231 96.62 231 82 231 C82.01571045 226.47289307 82.0314209 221.94578613 82.04760742 217.28149414 C82.09732278 202.32183215 82.13060974 187.3621669 82.15543652 172.40244389 C82.17088942 163.33262476 82.19194873 154.26288403 82.22631836 145.19311523 C82.25626906 137.28566717 82.27558646 129.3782759 82.28226548 121.47077268 C82.28616815 117.28582853 82.29530693 113.10104683 82.31719017 108.91615486 C82.33764504 104.9722388 82.34381573 101.02855117 82.33932304 97.0845871 C82.34014424 95.64189091 82.34605617 94.19918659 82.35761642 92.75653648 C82.43708907 82.32161967 82.05478614 73.27779885 74.58203125 65.44140625 C69.44798393 60.76371869 64.53309829 60.52455345 57.83984375 60.71484375 C51.6548794 61.33589244 47.9199727 64.35792707 44 69 C39.14793712 76.40486118 39.45573545 83.41184593 39.54589844 92.04492188 C39.54702812 93.56332367 39.54639069 95.08172764 39.54412842 96.60012817 C39.54298505 100.70302304 39.56643269 104.8054461 39.59442425 108.90823174 C39.61950119 113.2029974 39.62178485 117.49777496 39.62652588 121.79260254 C39.63893722 129.91686285 39.67173377 138.04090676 39.71192384 146.16507196 C39.75669901 155.41777151 39.77864301 164.67048161 39.79870558 173.9232626 C39.84046819 192.94898918 39.91379738 211.97441929 40 231 C25.48 231 10.96 231 -4 231 C-3.97905273 225.71033203 -3.95810547 220.42066406 -3.93652344 214.97070312 C-3.87027967 197.50444997 -3.82587121 180.0381919 -3.79275131 162.57184601 C-3.77213421 151.98077487 -3.74402981 141.38982282 -3.69824219 130.79882812 C-3.65834845 121.56672062 -3.63256099 112.33469937 -3.62364602 103.10250807 C-3.61843559 98.21500437 -3.6062068 93.32774742 -3.57707977 88.44032288 C-3.54987065 83.83729544 -3.54156612 79.23461572 -3.54756927 74.6315155 C-3.5464715 72.94489653 -3.53855035 71.25826558 -3.5231781 69.57171631 C-3.36843181 56.35170933 -3.36843181 56.35170933 -9.7109375 44.9765625 C-19.32057139 37.17155469 -31.25628863 36.33532572 -39.875 45.9375 Z " fill="#ff7f11" transform="translate(302,4)"/>
</svg>
