<?xml version="1.0" encoding="UTF-8"?>
<svg version="1.1" xmlns="http://www.w3.org/2000/svg" width="512" height="512">
<path d="M0 0 C8.16734798 6.08547496 13.58219014 13.53303628 19 22 C20.30710937 21.29423828 20.30710937 21.29423828 21.640625 20.57421875 C38.15584973 11.85064862 54.10440479 9.42036678 72.28125 14.75390625 C89.04687072 20.37179807 100.04861931 32.27161389 107.9375 47.6875 C108.288125 48.450625 108.63875 49.21375 109 50 C109.59425781 49.67386719 110.18851562 49.34773438 110.80078125 49.01171875 C125.56540769 41.22756889 142.83955677 38.99942895 159.125 43.5625 C174.49749184 49.32718444 186.58445394 59.24090347 194 74 C194.38800781 74.76183594 194.77601563 75.52367188 195.17578125 76.30859375 C200.2908361 87.04090884 200.29387299 97.60569498 200.2746582 109.2277832 C200.27901104 110.97003904 200.28419609 112.71229296 200.29014587 114.45454407 C200.30349457 119.17010135 200.30411849 123.88557826 200.30158257 128.60115075 C200.30050874 132.55388087 200.30540744 136.506595 200.310188 140.45932168 C200.32127177 149.80109977 200.32172881 159.14283766 200.31567383 168.48461914 C200.30965257 178.07463908 200.32190051 187.66451161 200.3432439 197.25450641 C200.36095849 205.52245741 200.36684531 213.79036195 200.36360615 222.05833119 C200.36180668 226.98066825 200.36429295 231.90290047 200.37832069 236.82522011 C200.3910536 241.46696532 200.38881167 246.10848455 200.37590981 250.75022697 C200.37357659 252.43663236 200.3761588 254.12305441 200.38453293 255.80944061 C200.45615268 271.37821104 199.10402803 287.22416903 194.3125 302.125 C194.05831299 302.93864014 193.80412598 303.75228027 193.54223633 304.59057617 C187.34879916 323.74555561 177.85557591 340.72264684 165.29589844 356.38183594 C163.5461463 358.5667186 161.82067066 360.77025545 160.09399414 362.97338867 C158.72260842 364.72243483 157.34776105 366.46872056 155.97265625 368.21484375 C151.6398999 373.72436216 147.34327771 379.26202446 143.04296875 384.796875 C137.03145413 392.53343294 131.01513425 400.26625597 125 408 C124.67 439.02 124.34 470.04 124 502 C31.93 502 -60.14 502 -155 502 C-155.33 494.41 -155.66 486.82 -156 479 C-160.24919081 443.73171631 -174.05487318 411.27658543 -202.5 388.609375 C-209.30380572 383.46640393 -216.34778302 378.65009049 -223.37109375 373.81445312 C-227.59616784 370.89833587 -231.79724081 367.9481424 -236 365 C-241.20596939 361.35220258 -246.41530713 357.70940836 -251.6328125 354.078125 C-252.55191406 353.43746094 -253.47101563 352.79679687 -254.41796875 352.13671875 C-256.18765528 350.90330087 -257.95844396 349.67146244 -259.73046875 348.44140625 C-260.52324219 347.88839844 -261.31601562 347.33539063 -262.1328125 346.765625 C-263.18299561 346.03520996 -263.18299561 346.03520996 -264.25439453 345.29003906 C-266 344 -266 344 -268 342 C-268.25447559 339.65622425 -268.25447559 339.65622425 -268.26069641 336.65937805 C-268.26778122 335.52556702 -268.27486603 334.39175598 -268.28216553 333.22358704 C-268.27968811 331.97329208 -268.27721069 330.72299713 -268.2746582 329.43481445 C-268.27976913 328.12237762 -268.28488007 326.8099408 -268.29014587 325.45773315 C-268.30357523 321.84742731 -268.30410905 318.23722593 -268.30158257 314.62689996 C-268.30051319 311.6060458 -268.30539661 308.58521281 -268.310188 305.56436318 C-268.32130172 298.42301971 -268.32171342 291.2817288 -268.31567383 284.14038086 C-268.30966343 276.80379332 -268.32186551 269.46739898 -268.3432439 262.13084441 C-268.36095916 255.81638448 -268.36684482 249.50198543 -268.36360615 243.18750161 C-268.36180517 239.42383506 -268.36430738 235.66030557 -268.37832069 231.89666176 C-268.39105272 228.34335029 -268.3888127 224.79033403 -268.37590981 221.23702621 C-268.3724773 219.33743748 -268.3836146 217.4378391 -268.39547729 215.5382843 C-268.25709061 192.44588804 -260.1474979 171.37951461 -243.91015625 154.78515625 C-228.70451173 139.90662475 -208.5929269 130.92103066 -187.26171875 130.984375 C-186.27518311 130.98663086 -185.28864746 130.98888672 -184.2722168 130.99121094 C-183.52238525 130.99411133 -182.77255371 130.99701172 -182 131 C-182.00888245 130.05167801 -182.01776489 129.10335602 -182.0269165 128.126297 C-182.10840954 119.13885065 -182.16815924 110.1514804 -182.20724869 101.16374683 C-182.2280214 96.54430923 -182.25614762 91.92517264 -182.30175781 87.3059082 C-182.34558731 82.83844276 -182.36921443 78.37126474 -182.37950897 73.90360069 C-182.3868344 72.20894542 -182.40113693 70.51430382 -182.42292023 68.81977272 C-182.64980183 50.41947168 -178.34343365 35.06128491 -165.5168457 21.28686523 C-154.41670912 10.0351531 -139.25418277 4.01551993 -123.5 3.75 C-110.47385459 3.92689827 -100.21499078 7.85986652 -89 14 C-87.67015009 14.67358847 -86.33851588 15.34380075 -85 16 C-84.38125 15.14728516 -84.38125 15.14728516 -83.75 14.27734375 C-77.48808794 5.90483187 -71.30165148 0.40846021 -62 -4.3125 C-61.33556885 -4.65031494 -60.6711377 -4.98812988 -59.98657227 -5.33618164 C-40.90112343 -14.60330814 -17.38065181 -11.55256439 0 0 Z M-58.0625 31.125 C-65.31404417 42.22522922 -64.41058778 55.15560092 -64.28125 67.89941406 C-64.25007093 70.99296232 -64.24026214 74.08599743 -64.234375 77.1796875 C-64.22520231 79.18229775 -64.2148257 81.18490292 -64.203125 83.1875 C-64.19675018 84.54742065 -64.19675018 84.54742065 -64.19024658 85.93481445 C-64.11645479 92.7038573 -63.56612306 99.20652325 -63 106 C-73.56 106 -84.12 106 -95 106 C-94.94199219 102.50664063 -94.88398438 99.01328125 -94.82421875 95.4140625 C-94.78514886 92.00506863 -94.75483218 88.59610035 -94.7253418 85.18701172 C-94.70030292 82.83012605 -94.66626159 80.47331721 -94.62280273 78.11669922 C-94.5616841 74.71562672 -94.53368273 71.3155868 -94.51171875 67.9140625 C-94.48591232 66.87198639 -94.4601059 65.82991028 -94.43351746 64.7562561 C-94.43043754 56.59858571 -96.40959338 50.10123406 -101.85185242 43.88467407 C-107.54986934 38.22995433 -114.67911768 35.53063467 -122.5625 34.5625 C-131.56501045 35.70827406 -138.61169233 38.38039474 -145 45 C-151.12143629 53.86512476 -151.84274486 62.36205173 -151.68115234 72.77441406 C-151.67945601 74.32296177 -151.68041748 75.87151428 -151.68380737 77.4200592 C-151.68551547 81.58700385 -151.65046101 85.75289343 -151.60836363 89.91959476 C-151.57062912 94.28771042 -151.56731349 98.65585538 -151.56021118 103.02410889 C-151.54162862 111.27940227 -151.49248182 119.53421384 -151.43211424 127.78929591 C-151.36484281 137.19440553 -151.33200844 146.59953923 -151.30194163 156.00482988 C-151.23937594 175.33688117 -151.12942686 194.66827275 -151 214 C-161.23 214 -171.46 214 -182 214 C-182 196.84 -182 179.68 -182 162 C-197.80939744 162 -211.17003612 166.42658357 -222.74609375 177.51953125 C-233.81895866 189.70543977 -237.03569215 203.33593742 -237.38330078 219.32275391 C-237.41075378 220.45527588 -237.43820679 221.58779785 -237.4664917 222.75463867 C-237.70582551 233.17751594 -237.85144815 243.60196277 -237.96293831 254.02691078 C-238.03949919 261.0228959 -238.14815474 268.01535192 -238.33740234 275.00927734 C-238.52073797 281.7857858 -238.61370954 288.55876507 -238.65185165 295.33762741 C-238.68063013 297.91276407 -238.73894133 300.48775408 -238.82797623 303.06151199 C-239.76787859 316.27082152 -239.76787859 316.27082152 -235.33805656 328.23997879 C-231.36949131 332.01977397 -226.92716631 334.62057526 -222.0146513 336.99241161 C-219.29223575 338.35397443 -216.89799685 340.0734029 -214.45703125 341.8828125 C-213.68109619 342.42446045 -212.90516113 342.9661084 -212.10571289 343.52416992 C-208.83211864 345.80937779 -205.56377044 348.10205407 -202.29492188 350.39404297 C-200.22602089 351.84183347 -198.15260562 353.28288071 -196.078125 354.72265625 C-153.75498611 384.27692427 -134.64934492 421.82340641 -125 472 C-53.06 472 18.88 472 93 472 C93.33 447.25 93.66 422.5 94 397 C97.63 392.38 101.26 387.76 105 383 C107.27365264 380.08543562 109.54560098 377.16978835 111.8125 374.25 C113.00650064 372.71353407 114.20051135 371.17707596 115.39453125 369.640625 C115.99088379 368.87298828 116.58723633 368.10535156 117.20166016 367.31445312 C119.55254034 364.28888373 121.90476775 361.26436475 124.2578125 358.24047852 C125.41909601 356.747051 126.57925326 355.25274703 127.73828125 353.75756836 C130.69247924 349.94931901 133.66536696 346.15854489 136.67578125 342.39453125 C155.26578582 319.05903979 169.04440877 293.02868119 169.14717102 262.45484924 C169.15268605 261.38218879 169.15268605 261.38218879 169.1583125 260.28785843 C169.16923875 257.91528673 169.17317405 255.54275897 169.17700195 253.17016602 C169.18327466 251.45947128 169.18992217 249.74877788 169.19691467 248.03808594 C169.21785039 242.44336884 169.22830289 236.84865178 169.23828125 231.25390625 C169.24233185 229.32246321 169.24644886 227.39102032 169.25063133 225.45957756 C169.26965496 216.38855076 169.28389543 207.31753199 169.2922433 198.24648911 C169.30202442 187.79280031 169.32837864 177.33932275 169.36874419 166.88570839 C169.39892368 158.79120411 169.41371366 150.69676037 169.41702431 142.60220093 C169.41937138 137.77348325 169.4282884 132.94499201 169.45348549 128.11633492 C169.47680535 123.57473798 169.48098377 119.03351604 169.47072411 114.49187469 C169.4702297 112.82986387 169.47652207 111.16783431 169.49028015 109.50588036 C169.5826324 97.68430723 168.40032421 88.75040135 160.05078125 79.79296875 C154.47681685 74.9197313 147.466668 71.77330799 140 72 C131.56814976 72.65809563 125.09159633 75.75653219 119.2109375 81.85546875 C112.92199057 89.6159673 112 96.02941287 112 106 C101.77 106 91.54 106 81 106 C81.04640625 103.22851562 81.0928125 100.45703125 81.140625 97.6015625 C81.17190909 94.88755114 81.1961463 92.17356063 81.21972656 89.45947266 C81.23971863 87.58763491 81.26692168 85.71585862 81.30175781 83.84423828 C81.66916833 65.81902377 81.66916833 65.81902377 72.84765625 50.53515625 C65.53124554 44.45619344 57.29502883 42.30897016 48 43 C39.93347871 44.24415837 34.2836544 48.97511351 29 55 C24.57985516 62.18855135 23.84758433 69.26912446 23.90234375 77.58203125 C23.9037587 78.39621017 23.90517365 79.2103891 23.90663147 80.04924011 C23.91220683 82.63703156 23.92475476 85.22473492 23.9375 87.8125 C23.94251819 89.57226437 23.94708054 91.33203011 23.95117188 93.09179688 C23.96131519 97.39459209 23.9808953 101.697198 24 106 C13.77 106 3.54 106 -7 106 C-6.95359375 101.56820312 -6.9071875 97.13640625 -6.859375 92.5703125 C-6.83360935 89.01273038 -6.81193305 85.45517501 -6.79299927 81.89755249 C-6.77197023 78.15514063 -6.74392016 74.41309751 -6.69824219 70.67089844 C-6.65443969 67.05930865 -6.63079141 63.448074 -6.62049103 59.83623886 C-6.61316072 58.46565036 -6.59884802 57.09507894 -6.57707977 55.72464371 C-6.43178088 46.18874027 -7.22358896 38.35328502 -12.82421875 30.4140625 C-19.60646448 23.90196911 -25.30987185 20.85588107 -34.8125 20.375 C-44.16862559 20.68821803 -51.86852982 24.01100496 -58.0625 31.125 Z " fill="#ff7f11" transform="translate(290,10)"/>
</svg>
