<?xml version="1.0" encoding="UTF-8"?>
<svg version="1.1" xmlns="http://www.w3.org/2000/svg" width="512" height="512">
<path d="M0 0 C2.44302376 1.88283997 4.79989744 3.79435328 7.10546875 5.84375 C10.26927401 8.12430682 13.05704219 8.9591906 16.8125 10 C64.68897279 24.03488275 109.62765022 55.13586296 138.75 95.75 C139.14719238 96.2970459 139.54438477 96.8440918 139.95361328 97.40771484 C142.64719745 101.12815303 145.22793902 104.910233 147.75 108.75 C148.45898438 109.82894531 149.16796875 110.90789062 149.8984375 112.01953125 C150.55070312 113.06496094 151.20296875 114.11039063 151.875 115.1875 C152.45507812 116.11433594 153.03515625 117.04117188 153.6328125 117.99609375 C155.01198921 121.39581255 154.73023792 123.25333041 153.75 126.75 C151.59918889 129.77706748 150.49049726 130.62395791 146.8125 131.25 C142.97423812 130.623345 141.60120547 129.37519528 138.75 126.75 C137.31955949 124.71828027 135.97135231 122.62738534 134.6875 120.5 C126.76128144 107.75485684 117.68840486 96.06154226 107.24121094 85.28808594 C105.75664402 83.75685287 104.28863762 82.21085523 102.8203125 80.6640625 C95.69038813 73.24960506 87.98725272 66.89261098 79.75 60.75 C78.91130371 60.11215576 78.91130371 60.11215576 78.05566406 59.46142578 C55.09586418 41.64223873 55.09586418 41.64223873 28.75 32.75 C29.06453125 33.38164063 29.3790625 34.01328125 29.703125 34.6640625 C34.30763768 44.28915828 37.60955242 53.79417929 38 64.5 C38.42874398 67.68661063 38.81577251 69.85701176 41.18798828 72.12451172 C45.10617082 74.99856025 49.38199832 77.24608303 53.64892578 79.55273438 C56.79992531 81.34828419 59.64924688 83.45316145 62.5 85.6875 C63.28733521 86.30383301 63.28733521 86.30383301 64.09057617 86.93261719 C69.39632625 91.16404549 74.41226337 95.69912913 79.31787109 100.38525391 C80.69699053 101.69948467 82.09235213 102.99660661 83.48828125 104.29296875 C119.56009377 138.79871126 136.47720097 187.57811927 138.9375 236.4765625 C139.06922821 243.37582752 138.59387746 250.24958952 138.0625 257.125 C137.99844971 258.05900635 137.93439941 258.9930127 137.8684082 259.95532227 C137.41178264 265.19830672 136.5210878 269.74558382 134.6953125 274.69140625 C131.5217729 283.52646678 131.5217729 283.52646678 131.75 292.75 C137.21507184 301.72928674 147.30703033 312.02851517 156.75 316.75 C156.86682129 316.1945752 156.98364258 315.63915039 157.10400391 315.06689453 C158.07505723 310.56040662 159.18092337 306.14242925 160.50097656 301.7265625 C162.85064685 293.81343189 164.59503367 285.88353048 166 277.75 C166.16290527 276.80753418 166.32581055 275.86506836 166.49365234 274.89404297 C172.58885657 238.16088337 169.46063128 197.79694416 155.57885742 163.13720703 C153.90818536 158.85593462 153.36225916 155.33545693 153.75 150.75 C155.684304 148.02764622 157.05613681 146.99907909 160.1875 145.875 C163.32355472 145.72202172 164.97141622 146.29745934 167.75 147.75 C177.79638349 162.87832602 180.98194479 186.12394834 183.75 203.75 C183.86714355 204.43642578 183.98428711 205.12285156 184.10498047 205.83007812 C190.41848693 243.61730547 185.15269534 284.23066314 172.25317383 319.984375 C171.91439209 320.94085938 171.57561035 321.89734375 171.2265625 322.8828125 C170.91799316 323.72730957 170.60942383 324.57180664 170.29150391 325.44189453 C169.69125716 328.00038541 169.81082226 329.31633316 170.75 331.75 C172.48897758 333.701627 172.48897758 333.701627 174.6875 335.625 C191.55016249 352.03191485 201.68287717 374.80165093 202.04223633 398.33398438 C202.10814086 410.46041745 201.87235642 421.27206645 197.75 432.75 C197.37617188 433.80703125 197.00234375 434.8640625 196.6171875 435.953125 C187.39059992 459.78338431 170.19788258 477.44377258 147.3125 488.5 C123.55067868 498.81304855 96.43576271 498.76501009 72.4375 489.4375 C59.43096849 483.59166822 47.66357077 475.80001792 38.3828125 464.8671875 C36.75900239 463.48627271 36.75900239 463.48627271 34.46533203 464.07568359 C31.80623579 464.73603459 29.26083712 465.52662642 26.671875 466.421875 C11.86196355 471.42807643 -2.81732788 475.23482684 -18.25 477.75 C-19.03906738 477.88132324 -19.82813477 478.01264648 -20.64111328 478.14794922 C-58.54506621 484.12836932 -98.55569401 479.00941671 -134.48461914 466.34106445 C-135.44102295 466.00550537 -136.39742676 465.66994629 -137.3828125 465.32421875 C-138.22730957 465.02088623 -139.07180664 464.71755371 -139.94189453 464.4050293 C-142.49146459 463.56799076 -142.49146459 463.56799076 -146.25 463.75 C-147.91386273 465.22539819 -147.91386273 465.22539819 -149.375 467.25 C-159.77272769 479.73606623 -174.94148518 487.85720592 -190.25 492.75 C-191.72339844 493.22953125 -191.72339844 493.22953125 -193.2265625 493.71875 C-210.30764977 498.29631185 -230.60562871 497.66542115 -247.25 491.75 C-248.30832031 491.37617188 -249.36664063 491.00234375 -250.45703125 490.6171875 C-274.72772222 481.20801077 -292.70860009 463.5522303 -303.5 440 C-311.93180609 418.96656021 -314.15558604 394.33745987 -306.25 372.75 C-305.95883301 371.94836426 -305.66766602 371.14672852 -305.36767578 370.32080078 C-302.81699109 363.74933235 -299.63853853 357.77808383 -296.140625 351.671875 C-283.84081538 332.23095017 -283.84081538 332.23095017 -282.15649414 310.44482422 C-283.59741037 306.64677621 -285.23052083 303.0026181 -287.06005859 299.37646484 C-289.02667115 295.03571436 -289.78429408 290.5518984 -290.5625 285.875 C-290.7162207 285.00020996 -290.86994141 284.12541992 -291.02832031 283.22412109 C-291.45568042 280.73557033 -291.8556746 278.24396676 -292.25 275.75 C-292.36714355 275.06502441 -292.48428711 274.38004883 -292.60498047 273.67431641 C-296.68261953 249.26301215 -295.66981343 222.00849931 -291.25 197.75 C-291.08902832 196.85812988 -290.92805664 195.96625977 -290.76220703 195.04736328 C-285.01864399 164.54192612 -273.46651381 134.6410149 -256.25 108.75 C-255.80188965 108.07565918 -255.3537793 107.40131836 -254.89208984 106.70654297 C-239.57516623 83.90480118 -220.63117376 62.80251662 -198.25 46.75 C-197.1878125 45.97785156 -196.125625 45.20570312 -195.03125 44.41015625 C-173.89702511 29.40588251 -150.63402839 17.28846907 -125.625 10.25 C-119.60254884 8.51856371 -115.46815986 6.01119647 -110.78125 1.86328125 C-103.51802274 -4.20061681 -94.78978879 -8.27840027 -86 -11.625 C-85.37528809 -11.8636377 -84.75057617 -12.10227539 -84.10693359 -12.34814453 C-56.40367811 -22.33865361 -23.70632036 -17.0329594 0 0 Z M-109.25 21.75 C-115.16793532 27.78224908 -119.76990177 34.08348152 -123.625 41.5625 C-123.9346167 42.15297119 -124.2442334 42.74344238 -124.56323242 43.35180664 C-130.55884445 55.74252076 -131.86445377 68.20519957 -131.78125 81.71875 C-131.78395412 83.29480223 -131.78784412 84.87085281 -131.79284668 86.44689941 C-131.79868479 89.71769409 -131.79035639 92.9880465 -131.77148438 96.25878906 C-131.74854506 100.43599806 -131.76194712 104.61218713 -131.78577423 108.78936005 C-131.80025856 112.03059527 -131.79561687 115.27159001 -131.78526306 118.51283264 C-131.78261087 120.05331039 -131.78581199 121.59381055 -131.79518127 123.13426208 C-131.86056371 135.29550177 -131.86056371 135.29550177 -125.72265625 145.45703125 C-121.68292992 148.62390813 -118.44511832 150.75 -113.25 150.75 C-113.24635437 149.99244919 -113.24270874 149.23489838 -113.23895264 148.45439148 C-113.20109739 141.31770734 -113.14427408 134.18154666 -113.06609726 127.04519939 C-113.02657492 123.37622466 -112.99441026 119.70749162 -112.97900391 116.03833008 C-112.96386791 112.49781155 -112.92947887 108.95795727 -112.88169098 105.41773415 C-112.85961645 103.40869347 -112.85752363 101.39946564 -112.85565186 99.39030457 C-112.83593323 98.16926529 -112.8162146 96.94822601 -112.79589844 95.69018555 C-112.78257477 94.07469063 -112.78257477 94.07469063 -112.76898193 92.42655945 C-112.25 89.75 -112.25 89.75 -110.4072876 87.9021759 C-107.4894571 86.34380511 -105.50980401 86.33385481 -102.25 86.75 C-100.21332385 88.29506466 -99.38926922 89.47146156 -98.25 91.75 C-98.15457995 93.22117616 -98.12098586 94.69658707 -98.11869812 96.17085266 C-98.11268585 97.5650946 -98.11268585 97.5650946 -98.10655212 98.98750305 C-98.1073452 100.52183235 -98.1073452 100.52183235 -98.1081543 102.0871582 C-98.10467987 103.16206512 -98.10120544 104.23697205 -98.09762573 105.3444519 C-98.0902599 107.68475639 -98.08491894 110.02506791 -98.08133507 112.36538124 C-98.07418605 116.06771684 -98.05853134 119.76991864 -98.03999329 123.47221375 C-97.98744865 134.00092196 -97.93953215 144.52952234 -97.92407227 155.05834961 C-97.91400328 161.49281812 -97.88470487 167.92695173 -97.84275246 174.36128807 C-97.83042113 176.81607724 -97.82532506 179.27091367 -97.82755089 181.7257328 C-97.8298979 185.15907273 -97.80778127 188.59144836 -97.7800293 192.0246582 C-97.78663071 193.04147171 -97.79323212 194.05828522 -97.80003357 195.10591125 C-97.74149851 199.50956358 -97.68500466 202.04149247 -95.34187317 205.85783386 C-92.84977595 208.11201545 -91.77470948 208.68003874 -88.4375 209.125 C-84.20970586 208.62761245 -82.92182436 206.95618923 -80.25 203.75 C-78.80968908 200.86937816 -79.11728224 198.37962661 -79.1081543 195.16064453 C-79.10467987 194.48402771 -79.10120544 193.80741089 -79.09762573 193.11029053 C-79.09026804 191.63923084 -79.08492272 190.16816005 -79.08133507 188.69708633 C-79.07417503 186.36859355 -79.05851233 184.04031216 -79.03999329 181.71188354 C-78.98750029 175.09099214 -78.9395391 168.47021614 -78.92407227 161.84912109 C-78.91399418 157.80062461 -78.88467506 153.75265915 -78.84275246 149.70437241 C-78.8304349 148.16145722 -78.82532259 146.61846705 -78.82755089 145.0755043 C-78.82990241 142.91580743 -78.80775279 140.75763538 -78.7800293 138.59814453 C-78.77416306 137.36951691 -78.76829681 136.14088928 -78.76225281 134.87503052 C-78.15381173 131.16319738 -77.23587467 129.97202758 -74.25 127.75 C-70.72846349 127.16307725 -69.04282466 127.1976684 -66.09265137 129.25294495 C-63.49729341 132.77002464 -63.70818778 136.00035978 -63.76757812 140.20288086 C-63.76366562 141.05374771 -63.75975311 141.90461456 -63.75572205 142.78126526 C-63.74974907 144.62661435 -63.75291345 146.47201055 -63.7641449 148.31733513 C-63.78139134 151.23878612 -63.77390756 154.1592462 -63.7598877 157.08070374 C-63.73022074 164.33598035 -63.74343051 171.59106835 -63.75506592 178.84637451 C-63.76326694 184.97753145 -63.75534071 191.10825591 -63.72593689 197.23935127 C-63.71883913 200.11621576 -63.73552583 202.99232078 -63.75305176 205.86912537 C-63.74734389 207.63532928 -63.7405266 209.40153007 -63.73242188 211.16772461 C-63.74373642 211.96632904 -63.75505096 212.76493347 -63.76670837 213.58773804 C-63.72540516 217.35400299 -63.39693614 219.52063647 -61.34484863 222.72389221 C-58.84635 225.14040454 -57.89002622 225.67888598 -54.4375 226.0625 C-50.5192355 225.67835642 -49.03706733 224.45743683 -46.25 221.75 C-44.64376907 218.53753814 -45.10584908 215.03726249 -45.1081543 211.50830078 C-45.10467987 210.65611969 -45.10120544 209.8039386 -45.09762573 208.92593384 C-45.09026366 207.0718158 -45.08492069 205.21768891 -45.08133507 203.36355972 C-45.07418189 200.4301967 -45.05852439 197.49700216 -45.03999329 194.56369019 C-44.98746653 186.22233376 -44.93952966 177.88106908 -44.92407227 169.53955078 C-44.91400305 164.44072022 -44.8847056 159.34231229 -44.84275246 154.24364853 C-44.83042233 152.29880848 -44.82532486 150.35390878 -44.82755089 148.40903091 C-44.82989812 145.6890563 -44.80778214 142.97029869 -44.7800293 140.25048828 C-44.78663071 139.44514648 -44.79323212 138.63980469 -44.80003357 137.81005859 C-44.74023262 134.24600887 -44.55010312 132.15651064 -42.40437317 129.24996948 C-39.45589663 127.19711026 -37.76872637 127.1635456 -34.25 127.75 C-31.27507346 129.96629755 -30.34612026 131.14481315 -29.75793457 134.84811401 C-29.76111694 136.06467682 -29.76429932 137.28123962 -29.76757812 138.53466797 C-29.76366562 139.20836426 -29.75975311 139.88206055 -29.75572205 140.57617188 C-29.74975617 142.03518617 -29.75290075 143.49426009 -29.7641449 144.95324326 C-29.78142768 147.26596422 -29.77388864 149.57743736 -29.7598877 151.89016724 C-29.73025544 157.63412084 -29.74341169 163.37783539 -29.75506592 169.12182617 C-29.76328245 173.97600847 -29.75527546 178.82964525 -29.72593689 183.68375015 C-29.71886187 185.95625355 -29.73549681 188.22778679 -29.75305176 190.50021362 C-29.74734112 191.90232864 -29.74052248 193.30443972 -29.73242188 194.70654297 C-29.73560425 195.92469696 -29.73878662 197.14285095 -29.74206543 198.3979187 C-29.15165976 202.41992002 -27.76861862 204.59725042 -25.25 207.75 C-22.39675563 209.17662219 -20.41545451 209.06033868 -17.25 208.75 C-14.55009338 206.95006226 -12.7081135 205.666227 -11.25 202.75 C-11.13935617 200.55557377 -11.0934481 198.35779233 -11.07641602 196.16064453 C-11.0663855 195.1457193 -11.0663855 195.1457193 -11.05615234 194.11029053 C-11.04209269 192.63924085 -11.03020155 191.16816923 -11.02020454 189.69708633 C-11.00380619 187.36860456 -10.98056854 185.040285 -10.95530701 182.71188354 C-10.88450178 176.09104485 -10.82442666 169.47013959 -10.77319336 162.84912109 C-10.74138707 158.8007594 -10.70010633 154.75258354 -10.65299797 150.70437241 C-10.63698648 149.1614504 -10.62466095 147.61848558 -10.61609077 146.0755043 C-10.60392544 143.91619268 -10.57977075 141.75731717 -10.55297852 139.59814453 C-10.54267105 138.36951691 -10.53236359 137.14088928 -10.52174377 135.87503052 C-10.26301699 132.89969428 -9.90921881 131.20191829 -8.25 128.75 C-5.44084526 127.34542263 -3.36189466 127.50104843 -0.25 127.75 C1.91416931 128.93948364 1.91416931 128.93948364 3.75 130.75 C4.24879456 133.12716675 4.24879456 133.12716675 4.24829102 135.96826172 C4.25832657 137.03301727 4.26836212 138.09777283 4.27870178 139.1947937 C4.27051926 140.34480865 4.26233673 141.49482361 4.25390625 142.6796875 C4.2680381 144.45341232 4.2680381 144.45341232 4.28245544 146.26296997 C4.31119678 150.05048844 4.3141804 153.83738106 4.3125 157.625 C4.31610403 161.40538679 4.32561318 165.18531566 4.35325623 168.96560669 C4.3700784 171.31944991 4.37289418 173.67344389 4.36024475 176.02731323 C4.36712814 177.09837311 4.37401154 178.16943298 4.38110352 179.27294922 C4.38014175 180.21210175 4.37917999 181.15125427 4.37818909 182.11886597 C4.91830663 185.94102827 6.456938 188.73402272 9.5 191.125 C12.89112087 192.06697802 15.35991203 191.59752199 18.75 190.75 C21.09070433 189.28042738 21.09070433 189.28042738 22.75 186.75 C23.1323318 183.8563796 23.28450174 181.33174772 23.25390625 178.44140625 C23.26332748 177.63767075 23.27274872 176.83393524 23.28245544 176.00584412 C23.31109515 173.44113616 23.3141844 170.8773549 23.3125 168.3125 C23.31611166 165.75135092 23.32569412 163.1908763 23.35325623 160.62986755 C23.36999708 159.03837064 23.3729574 157.44665198 23.36024475 155.8551178 C23.40301066 151.33535256 23.81999529 148.27454745 26.75 144.75 C30.2557101 143.73015706 32.51913223 143.23764168 35.93945312 144.66137695 C38.89734528 148.07356241 38.3205417 151.8006029 38.28125 156.16796875 C38.2850769 157.09918045 38.28890381 158.03039215 38.29284668 158.98982239 C38.29556991 160.96270832 38.28818004 162.9356301 38.27148438 164.90844727 C38.25020072 167.90920086 38.27120921 170.90752715 38.296875 173.90820312 C38.29422944 175.82813024 38.28909974 177.74805586 38.28125 179.66796875 C38.28934692 180.55783981 38.29744385 181.44771088 38.30578613 182.36454773 C38.2042463 189.21463416 36.49846047 194.41912766 32.109375 199.73828125 C24.77310354 205.77467937 18.20754412 207.46377691 8.75 206.75 C5.625 206.25 5.625 206.25 3.75 205.75 C3.54246094 206.33007812 3.33492187 206.91015625 3.12109375 207.5078125 C0.17248368 214.98420457 -3.61320121 218.65184685 -10.5 222.625 C-17.07936776 224.59881033 -23.58730278 224.24128963 -30.25 222.75 C-30.54132813 223.41386719 -30.83265625 224.07773438 -31.1328125 224.76171875 C-34.6078646 232.24728696 -38.10168798 237.16673183 -46.14453125 240.23828125 C-54.05090116 242.15986652 -61.09015104 241.24784652 -68.125 237.234375 C-73.47738679 233.49557541 -75.97167673 228.74558756 -78.25 222.75 C-78.96800781 222.90726563 -79.68601563 223.06453125 -80.42578125 223.2265625 C-88.372208 224.69934422 -94.90108002 224.31093827 -102.01953125 220.3046875 C-107.58624186 216.42456346 -110.44616852 212.27307212 -112.25 205.75 C-112.56686433 202.7123548 -112.62117356 199.68525613 -112.6640625 196.6328125 C-112.68342865 195.77565643 -112.7027948 194.91850037 -112.7227478 194.03536987 C-112.78221256 191.31534572 -112.82879569 188.59527848 -112.875 185.875 C-112.9132103 184.02341972 -112.95226378 182.17185663 -112.9921875 180.3203125 C-113.08788664 175.79701575 -113.17203906 171.27363584 -113.25 166.75 C-114.06114258 166.55809082 -114.87228516 166.36618164 -115.70800781 166.16845703 C-116.77889648 165.90919434 -117.84978516 165.64993164 -118.953125 165.3828125 C-120.01176758 165.12902832 -121.07041016 164.87524414 -122.16113281 164.61376953 C-130.77011296 162.20635792 -137.32627784 157.22520132 -142.25 149.75 C-145.95440081 142.42858313 -146.84978834 135.96691692 -146.859375 127.8359375 C-146.87591125 126.74028473 -146.89244751 125.64463196 -146.90948486 124.51577759 C-146.95766458 121.05212633 -146.97926955 117.58891315 -147 114.125 C-147.0281847 111.76169706 -147.05811558 109.39841427 -147.08984375 107.03515625 C-147.16341526 101.27351625 -147.21523305 95.51199794 -147.25 89.75 C-148.97975625 90.83292179 -150.70715618 91.91960774 -152.43359375 93.0078125 C-153.39579834 93.61254395 -154.35800293 94.21727539 -155.34936523 94.84033203 C-163.63320046 100.29409511 -171.01133075 107.00011549 -178.25 113.75 C-178.98992187 114.43578125 -179.72984375 115.1215625 -180.4921875 115.828125 C-191.12724988 126.04686822 -199.73641917 138.10621607 -207.25 150.75 C-207.76191895 151.60899902 -207.76191895 151.60899902 -208.28417969 152.48535156 C-226.66771577 183.85171025 -233.57161678 220.77353113 -230.375 256.75 C-230.29660889 257.67111572 -230.21821777 258.59223145 -230.13745117 259.54125977 C-230.05342041 260.41451904 -229.96938965 261.28777832 -229.8828125 262.1875 C-229.80949707 262.96996094 -229.73618164 263.75242187 -229.66064453 264.55859375 C-228.894322 268.64807712 -227.67019187 270.42115419 -224.375 273 C-221.26526886 275.07573558 -221.26526886 275.07573558 -217.25 274.75 C-215.20265664 273.71607625 -215.20265664 273.71607625 -213.25 272.3125 C-207.35671868 268.27237941 -201.2768099 267.89714181 -194.25 268.75 C-189.52618656 270.49377686 -185.42588459 272.96607694 -181.25 275.75 C-180.82702637 274.89768799 -180.40405273 274.04537598 -179.96826172 273.16723633 C-178.38315937 269.98251416 -176.77975828 266.80729883 -175.17089844 263.63452148 C-174.47941065 262.26462025 -173.79279439 260.89224798 -173.11132812 259.51733398 C-172.12625512 257.53206625 -171.1235274 255.55658715 -170.1171875 253.58203125 C-169.82004852 252.97349808 -169.52290955 252.3649649 -169.21676636 251.73799133 C-166.22656305 245.95196049 -161.65493557 241.64453517 -155.49609375 239.2578125 C-148.12144471 237.59050054 -139.52863432 237.3859702 -132.92578125 241.4296875 C-126.97615119 246.11727482 -123.83655805 251.34606242 -122.25 258.75 C-120.96753697 270.71965495 -128.7623774 282.00400986 -134.08154297 292.27612305 C-135.11827041 294.28363016 -136.1454466 296.29580664 -137.171875 298.30859375 C-137.49573181 298.92625107 -137.81958862 299.54390839 -138.15325928 300.18028259 C-138.9131801 301.67402219 -139.59005918 303.20947549 -140.25 304.75 C-139.92 305.41 -139.59 306.07 -139.25 306.75 C-130.1290589 297.11981461 -130.1290589 297.11981461 -121.5625 287 C-107.12863773 269.16838549 -107.12863773 269.16838549 -94.9375 267.41796875 C-88.10221769 267.09756489 -81.74656731 268.69726688 -76.4375 273.0625 C-70.91170968 279.85132811 -67.87629666 285.79452849 -68.25 294.625 C-69.63487321 304.71918696 -76.73767898 311.65552511 -83.46484375 318.75390625 C-85.9948818 321.43738443 -88.32487352 324.24031099 -90.625 327.125 C-95.22078176 332.83666402 -100.19386488 338.14646818 -105.20703125 343.48828125 C-108.64948087 347.1604402 -111.98121785 350.92255326 -115.25 354.75 C-114.85167969 355.34425781 -114.45335937 355.93851562 -114.04296875 356.55078125 C-108.59098023 365.08029127 -104.75647898 374.45947607 -106.25 384.75 C-108.04068977 392.19743286 -110.56731177 399.04224644 -114.25 405.75 C-108.83468267 408.24993788 -103.47565301 409.89888801 -97.6875 411.3125 C-96.80634521 411.52938477 -95.92519043 411.74626953 -95.01733398 411.96972656 C-69.29254191 418.14386404 -42.11759096 418.4445048 -16.25 412.75 C-15.90560942 409.57277072 -15.90560942 409.57277072 -18.48046875 407.40234375 C-19.46394816 406.49500793 -20.44976555 405.59020189 -21.4375 404.6875 C-28.32400302 398.03337378 -32.40138455 392.11506331 -32.875 382.25 C-32.57515872 375.18707198 -30.55383879 369.42585281 -25.79296875 364.12890625 C-23.38669609 361.98929178 -21.1278499 360.70379341 -18.12109375 359.56640625 C-14.91411627 358.00022304 -14.91411627 358.00022304 -14.4375 354.4921875 C-14.375625 353.21601563 -14.31375 351.93984375 -14.25 350.625 C-13.58334121 342.69927338 -11.44164513 337.30323826 -5.30078125 332.09765625 C-3.67114493 330.90435258 -1.96665368 329.81432528 -0.25 328.75 C-0.58 327.63625 -0.91 326.5225 -1.25 325.375 C-3.38512408 316.58695305 -2.88477754 308.66603598 1.75 300.75 C5.62249319 296.09320439 10.75528566 292.80499085 16.75 291.75 C18.9597857 291.87186318 21.16824341 292.01948558 23.375 292.1875 C26.72222811 292.4001109 26.72222811 292.4001109 29.75 291.75 C31.83357466 289.45134666 32.91712456 287.16800804 34.2421875 284.37109375 C37.21453141 279.20414359 42.46452041 276.67059579 48.078125 275.09765625 C56.88913774 273.72671196 63.69289923 276.21444389 70.8046875 281.3125 C71.76761719 282.0240625 71.76761719 282.0240625 72.75 282.75 C73.74 283.41 74.73 284.07 75.75 284.75 C76.49443359 284.04423828 76.49443359 284.04423828 77.25390625 283.32421875 C83.94032629 277.19605769 89.78976345 274.21746953 98.9375 273.5 C105.51396268 273.93124345 111.7207959 276.13734489 117.75 278.75 C130.42747745 243.10454038 121.40538874 197.35711555 105.9375 163.9375 C97.0447856 145.45264422 84.81871316 129.54788427 70.75 114.75 C70.13125 114.06679687 69.5125 113.38359375 68.875 112.6796875 C64.40838843 107.91397248 59.35057652 103.97460932 54.1875 100 C53.46675293 99.44449463 52.74600586 98.88898926 52.00341797 98.31665039 C47.74113862 95.09139229 43.4509097 92.29503916 38.75 89.75 C38.73541748 90.64307861 38.72083496 91.53615723 38.70581055 92.45629883 C38.64472923 95.77217278 38.57057522 99.08721899 38.48754883 102.40258789 C38.45430999 103.83704628 38.42627465 105.27163513 38.40356445 106.70629883 C38.36999729 108.76960807 38.31768587 110.83172303 38.26171875 112.89453125 C38.23553467 114.13565674 38.20935059 115.37678223 38.18237305 116.65551758 C37.75 119.75 37.75 119.75 36.43676758 121.6550293 C33.5752395 123.51259963 31.04370172 123.10289661 27.75 122.75 C25.13406847 120.91884793 24.78010545 119.84031634 23.75 116.75 C23.65459457 115.12678824 23.61464335 113.5000236 23.6081543 111.87402344 C23.59760262 110.38536774 23.59760262 110.38536774 23.58683777 108.86663818 C23.58267349 107.79174133 23.57850922 106.71684448 23.57421875 105.609375 C23.55099217 103.31769944 23.52687375 101.02603277 23.50195312 98.734375 C23.46707199 95.13405653 23.43762824 91.53405936 23.42407227 87.93359375 C23.39432223 68.4861459 23.39432223 68.4861459 18.75 49.75 C18.45295166 48.95013672 18.15590332 48.15027344 17.84985352 47.32617188 C17.04669388 45.36569984 16.16666335 43.50286871 15.1875 41.625 C14.84871826 40.96741699 14.50993652 40.30983398 14.16088867 39.63232422 C4.52612453 21.76045144 -11.89895414 8.97860129 -31.01171875 2.46875 C-59.55411537 -5.74488932 -87.54407295 1.4146381 -109.25 21.75 Z M-209.25 77.75 C-209.83394531 78.30139648 -210.41789062 78.85279297 -211.01953125 79.42089844 C-220.88555057 88.77284622 -229.34982345 98.69505496 -237.25 109.75 C-237.69150391 110.3574707 -238.13300781 110.96494141 -238.58789062 111.59082031 C-259.90716932 141.11360025 -272.64252281 176.75672633 -277.25 212.75 C-277.39139404 213.82060669 -277.39139404 213.82060669 -277.53564453 214.9128418 C-278.46817558 222.8977432 -278.49248243 230.90873596 -278.5 238.9375 C-278.50100708 239.68644531 -278.50201416 240.43539062 -278.50305176 241.20703125 C-278.48584864 260.21546578 -276.7210894 279.45396825 -271.25 297.75 C-270.59 298.08 -269.93 298.41 -269.25 298.75 C-268.95867187 298.15050537 -268.66734375 297.55101074 -268.3671875 296.93334961 C-267.01347673 294.1751107 -265.63208931 291.43162192 -264.25 288.6875 C-263.79238281 287.74455078 -263.33476562 286.80160156 -262.86328125 285.83007812 C-259.10801627 278.44815312 -254.83656848 272.94773073 -247.25 269.3125 C-246.59 269.126875 -245.93 268.94125 -245.25 268.75 C-245.28029297 268.15687012 -245.31058594 267.56374023 -245.34179688 266.95263672 C-248.12551298 211.63163244 -238.56752942 158.93171262 -201.25 115.75 C-200.20972656 114.54537109 -200.20972656 114.54537109 -199.1484375 113.31640625 C-196.8874529 110.75582122 -194.58195601 108.24607076 -192.25 105.75 C-191.45207031 104.88632813 -190.65414062 104.02265625 -189.83203125 103.1328125 C-179.28220807 92.12013777 -167.02172697 83.0386696 -153.88671875 75.3359375 C-152.58154297 74.55089844 -152.58154297 74.55089844 -151.25 73.75 C-150.50105469 73.35425781 -149.75210938 72.95851562 -148.98046875 72.55078125 C-146.26106098 69.72087836 -146.29425453 66.30603974 -145.875 62.5625 C-144.61161216 53.34285476 -141.82372499 45.30105785 -138.25 36.75 C-137.58143162 35.08409528 -136.91392724 33.41775983 -136.25 31.75 C-160.54345578 31.75 -192.47232451 61.67649702 -209.25 77.75 Z M-155.25 258.75 C-157.62007637 262.81613515 -159.6678695 267.02917903 -161.73046875 271.2578125 C-162.34860632 272.50599316 -162.96771035 273.75369562 -163.58772278 275.00094604 C-165.21849048 278.28717057 -166.83754985 281.57902075 -168.45373535 284.87243652 C-171.01219324 290.08046501 -173.58899089 295.27947645 -176.16348457 300.47959137 C-176.79106819 301.7475855 -177.41826982 303.01576876 -178.04508781 304.28414154 C-183.2752777 314.86562913 -188.66341506 325.35236547 -194.25 335.75 C-194.65097397 336.49779724 -195.05194794 337.24559448 -195.46507263 338.01605225 C-198.46335428 343.60618992 -198.46335428 343.60618992 -199.8228302 346.11300659 C-201.18410779 348.643436 -202.33867449 351.01602346 -203.25 353.75 C-205.01953125 354.8046875 -205.01953125 354.8046875 -207.25 355.75 C-207.99636719 356.10320312 -208.74273437 356.45640625 -209.51171875 356.8203125 C-217.31251468 360.21196291 -223.24438244 361.00114552 -231.375 358.25 C-237.84844436 355.43677418 -241.4289245 350.48161324 -245.25 344.75 C-248.33021257 344.31276449 -248.33021257 344.31276449 -251.875 344.3125 C-258.15854584 344.00960087 -261.90850371 342.97505436 -267.25 339.75 C-268.735 339.255 -268.735 339.255 -270.25 338.75 C-270.745 337.76 -270.745 337.76 -271.25 336.75 C-273.59308588 341.3106562 -275.92176768 345.87830559 -278.23852539 350.45239258 C-279.02516339 352.00084087 -279.81541072 353.54746196 -280.60961914 355.09204102 C-292.06998751 377.39662891 -299.62194122 401.24202959 -291.63671875 426.234375 C-283.08554601 447.91340449 -269.48382916 464.49040996 -247.84375 474.29296875 C-227.70802536 482.31432634 -207.04373408 482.68769637 -186.91015625 474.3828125 C-160.17077389 462.75341232 -148.41478442 439.65098704 -136.02026367 414.90136719 C-134.30582138 411.48669814 -132.57027169 408.08329002 -130.83398438 404.6796875 C-129.73306784 402.49024012 -128.63341342 400.30015756 -127.53515625 398.109375 C-127.01856949 397.10291931 -126.50198273 396.09646362 -125.96974182 395.05950928 C-122.66897475 388.39431096 -120.29969335 382.37194596 -121.8515625 374.82421875 C-123.93497115 369.96558255 -125.56467313 366.61325531 -130.25 363.75 C-132.82580448 366.0602025 -134.22003017 368.34827671 -135.73022461 371.44921875 C-136.1975853 372.40030518 -136.66494598 373.3513916 -137.14646912 374.33129883 C-137.64340775 375.35634521 -138.14034637 376.3813916 -138.65234375 377.4375 C-139.717894 379.60166342 -140.7836557 381.76572275 -141.84960938 383.9296875 C-143.52304477 387.34494211 -145.19321743 390.7617338 -146.85913086 394.18066406 C-148.46906586 397.47892842 -150.09122659 400.77095448 -151.71484375 404.0625 C-152.20975815 405.08754639 -152.70467255 406.11259277 -153.21458435 407.16870117 C-153.6850972 408.1197876 -154.15561005 409.07087402 -154.64038086 410.05078125 C-155.04880722 410.88778564 -155.45723358 411.72479004 -155.8780365 412.5871582 C-157.42015953 415.01824922 -158.77023817 416.2975825 -161.25 417.75 C-165.29231702 417.75 -167.39594763 417.553814 -170.375 414.75 C-172.5904827 407.15405931 -165.9803666 397.72829662 -162.6640625 391.07421875 C-162.12526459 389.98663773 -161.58646667 388.8990567 -161.03134155 387.77851868 C-159.89644019 385.49360077 -158.75833257 383.21027286 -157.6171875 380.9284668 C-155.87484723 377.43719388 -154.1519557 373.93675621 -152.4296875 370.43554688 C-151.32148838 368.2103515 -150.21215233 365.98572189 -149.1015625 363.76171875 C-148.33412216 362.19450325 -148.33412216 362.19450325 -147.55117798 360.59562683 C-142.97079244 351.52105364 -142.97079244 351.52105364 -138.25 348.75 C-135.890625 348.30859375 -135.890625 348.30859375 -133.5 348.1875 C-126.829577 347.03810458 -124.37873084 342.60789791 -120.54833984 337.41210938 C-118.15088309 334.34293194 -115.43295145 331.56848916 -112.75 328.75 C-108.12753593 323.84676306 -103.78077662 318.8216046 -99.5859375 313.54296875 C-97.8089615 311.41832353 -96.01615349 309.41990845 -94.1015625 307.42578125 C-93.55701416 306.85609619 -93.01246582 306.28641113 -92.45141602 305.69946289 C-91.38962548 304.59844636 -90.31772167 303.50705843 -89.23413086 302.42749023 C-85.76058972 298.82103444 -84.14867795 295.81637235 -83.25 290.75 C-84.74045329 287.10666974 -86.70677725 284.52161138 -90.25 282.75 C-94.42984104 282.42216933 -96.19729952 282.89107093 -99.45703125 285.55078125 C-101.81575283 287.87735671 -104.04783852 290.27503934 -106.25 292.75 C-107.09498047 293.68199219 -107.09498047 293.68199219 -107.95703125 294.6328125 C-109.75019659 296.64848741 -111.50212128 298.69487698 -113.25 300.75 C-115.18574562 303.02233423 -117.12340868 305.29302016 -119.0625 307.5625 C-119.578125 308.16618408 -120.09375 308.76986816 -120.625 309.3918457 C-124.66929321 314.11039842 -128.81582459 318.71978877 -133.015625 323.30078125 C-134.97562883 325.44924699 -136.90344491 327.61883807 -138.8125 329.8125 C-141.54737356 332.95109299 -144.29566327 336.07701157 -147.0625 339.1875 C-147.81144531 340.03183594 -148.56039062 340.87617188 -149.33203125 341.74609375 C-152.19006025 344.73218107 -154.03535261 344.94778366 -158.0625 345.0625 C-161.77700988 345.03566106 -163.05066645 344.87204095 -166.3125 342.875 C-169.57527086 339.29647712 -169.75969446 336.51692483 -169.69918823 331.79162598 C-168.76943118 325.49588401 -165.42997551 319.99399858 -162.50390625 314.421875 C-161.80928344 313.06150052 -161.11668527 311.70009052 -160.42601013 310.33770752 C-158.61370776 306.77358705 -156.77907467 303.22149842 -154.93786621 299.67224121 C-151.98976556 293.98166186 -149.07313207 288.27498382 -146.16251945 282.56516266 C-145.14645466 280.58114095 -144.11893548 278.60339324 -143.08973694 276.62615967 C-142.4625784 275.40556111 -141.83572599 274.18480519 -141.20922852 272.96386719 C-140.38649193 271.37696075 -140.38649193 271.37696075 -139.5471344 269.75799561 C-138.21849917 266.67695101 -137.52954954 264.08936394 -137.25 260.75 C-138.6239373 257.87127423 -139.99989437 256.00010563 -142.25 253.75 C-148.58537062 253.02299026 -151.26467889 253.5836581 -155.25 258.75 Z M-246.25 287.75 C-248.34597638 291.2190861 -250.07651304 294.84022168 -251.8125 298.5 C-252.28107422 299.46421875 -252.74964844 300.4284375 -253.23242188 301.421875 C-254.15127242 303.31355053 -255.06373207 305.20834596 -255.96923828 307.10644531 C-257.1308894 309.50414992 -258.35166545 311.86005575 -259.58984375 314.21875 C-261.55539463 318.39959234 -261.59963186 320.36369646 -260.25 324.75 C-258.83333333 327.33333333 -258.83333333 327.33333333 -256.25 328.75 C-252.14662147 329.4808241 -252.14662147 329.4808241 -248.25 328.75 C-242.32772307 324.0756902 -239.18505179 316.40062187 -235.9375 309.8125 C-235.40060547 308.76642578 -234.86371094 307.72035156 -234.31054688 306.64257812 C-231.47398581 300.95157099 -229.30841487 296.16103176 -229.25 289.75 C-231.01464061 286.89006522 -232.24565697 285.25217151 -235.25 283.75 C-240.48634851 283.1681835 -242.55106126 284.0456056 -246.25 287.75 Z M-208.25 287.75 C-210.25514374 290.87703831 -211.89918209 294.1598841 -213.55078125 297.484375 C-214.0320195 298.4363678 -214.51325775 299.3883606 -215.00907898 300.36920166 C-216.02096336 302.38015068 -217.02668129 304.39421292 -218.02661133 306.41113281 C-219.55523127 309.48538166 -221.11307003 312.54352977 -222.67382812 315.6015625 C-223.65545638 317.56159428 -224.63533295 319.52250453 -225.61328125 321.484375 C-226.07881912 322.39298279 -226.54435699 323.30159058 -227.02400208 324.23773193 C-229.69601746 329.69991014 -231.02257725 333.65489784 -230.25 339.75 C-227.84524336 342.99009686 -227.84524336 342.99009686 -224.25 344.75 C-220.64418221 345.16349769 -220.64418221 345.16349769 -217.25 343.75 C-212.76621967 339.11781061 -210.02987152 333.9233383 -207.16796875 328.1875 C-206.47940544 326.82322876 -206.47940544 326.82322876 -205.77693176 325.43139648 C-204.81410332 323.51717484 -203.85540604 321.60087027 -202.90063477 319.68261719 C-201.43858271 316.75217011 -199.95547851 313.83304892 -198.47070312 310.9140625 C-197.53516188 309.04752424 -196.60087364 307.18035732 -195.66796875 305.3125 C-195.22430466 304.44359131 -194.78064056 303.57468262 -194.3235321 302.67944336 C-192.14549747 298.25626249 -190.47918236 294.80265942 -191.25 289.75 C-193.04993774 287.05009338 -194.333773 285.2081135 -197.25 283.75 C-202.482083 283.16865744 -204.52738313 284.08850021 -208.25 287.75 Z M85.29541016 296.86401367 C84.78734833 297.37163742 84.2792865 297.87926117 83.75582886 298.40226746 C82.09302109 300.06715051 80.44106942 301.74237383 78.7890625 303.41796875 C77.63244283 304.58018885 76.47515515 305.74174451 75.31723022 306.90266418 C72.28238712 309.94892081 69.25666459 313.00408052 66.23278809 316.06121826 C63.14114568 319.18363692 60.04091409 322.29750178 56.94140625 325.41210938 C50.86919164 331.51642648 44.8065909 337.63018121 38.75 343.75 C40.16443607 346.9369922 40.16443607 346.9369922 42.875 349.0625 C46.75978434 349.99147017 49.99169334 350.05071545 53.75 348.75 C61.01524621 343.56674921 67.10133208 336.44070429 73.30273438 330.0703125 C74.06263672 329.29945313 74.82253906 328.52859375 75.60546875 327.734375 C76.28246826 327.04053711 76.95946777 326.34669922 77.65698242 325.63183594 C82.34479933 321.41701117 86.78117095 319.65001394 93 319.4375 C93.70640625 319.40011719 94.4128125 319.36273438 95.140625 319.32421875 C101.98569928 320.44115452 107.20969622 324.59634708 111.96484375 329.3984375 C112.50605362 329.93344879 113.04726349 330.46846008 113.60487366 331.01968384 C114.73480826 332.14257316 115.85973287 333.27052514 116.97973633 334.40332031 C118.69227766 336.12981659 120.42763135 337.83082172 122.16601562 339.53125 C123.26707717 340.63136099 124.36673774 341.73287635 125.46484375 342.8359375 C125.98143051 343.33926605 126.49801727 343.8425946 127.03025818 344.36117554 C130.26658275 347.6829602 131.56618689 350.10013434 131.75 354.75 C130.8125 357.625 130.8125 357.625 128.75 359.75 C125.36348433 360.43878285 123.94858615 360.66225273 120.75 359.75 C117.73198547 357.74162866 115.26512027 355.34858665 112.75 352.75 C111.925 351.945625 111.1 351.14125 110.25 350.3125 C109.755 349.796875 109.26 349.28125 108.75 348.75 C105.35415241 350.24417294 102.5634815 352.29797695 99.62890625 354.53125 C97.75 355.75 97.75 355.75 95.08984375 356.5234375 C94.31769531 356.92820312 93.54554688 357.33296875 92.75 357.75 C91.88759161 360.57581059 91.88759161 360.57581059 91.75 363.875 C90.86536298 371.35721032 88.72211987 375.77788013 83.4375 381.0625 C79.50849287 383.52955099 75.22495076 385.41761097 70.59765625 386.0390625 C69.98792969 386.27367187 69.37820313 386.50828125 68.75 386.75 C67.74851229 388.86562348 67.74851229 388.86562348 67.25 391.4375 C65.45452992 398.20429852 62.62665786 402.7866726 56.75 406.75 C52.08018212 409.32316496 49.01932809 409.79930241 43.6875 409.8125 C39.1526542 410.03870037 39.1526542 410.03870037 35.8203125 412.890625 C34.8190506 414.66488183 33.87241752 416.47114089 32.984375 418.3046875 C31.45096408 421.34239394 29.54446483 422.86184809 26.75 424.75 C25.73564818 425.73543918 24.73286087 426.73314971 23.75 427.75 C28.23730499 432.31415255 32.73694937 436.86587983 37.24487305 441.40966797 C38.77304804 442.95281402 40.29850609 444.49865607 41.82104492 446.04736328 C61.01166361 465.55919023 80.21497369 479.98697381 108.75 480.25 C130.96397996 480.02830702 149.21435309 471.7769543 165.140625 456.44921875 C181.15712819 439.80621969 186.31668968 419.38157463 186.01953125 396.8515625 C185.69027936 386.26684396 182.67018148 377.15755939 178.1875 367.625 C177.77757812 366.72974609 177.77757812 366.72974609 177.359375 365.81640625 C171.07703347 353.43727758 159.57261637 343.25849026 149.85546875 333.5546875 C148.65223651 332.34755423 147.44922282 331.14020307 146.24641418 329.93264771 C143.75137733 327.43023017 141.25260864 324.93161527 138.7512207 322.43554688 C135.55417247 319.24434427 132.36876127 316.04178979 129.18618298 312.83616447 C126.71638451 310.35162721 124.23968677 307.8740584 121.76095009 305.39844131 C120.58289678 304.2198769 119.40718484 303.03896702 118.23393822 301.85561752 C116.59819319 300.20749504 114.95313714 298.56924715 113.30541992 296.93310547 C112.37485275 296.00190887 111.44428558 295.07071228 110.48551941 294.11129761 C107.06205864 291.15616971 103.76471416 289.05220712 99.25 288.375 C93.31182965 289.26572555 89.40538106 292.72396981 85.29541016 296.86401367 Z M46.75 292.75 C44.23749417 296.51875875 44.21983914 298.28150134 44.75 302.75 C46.20993314 305.07978877 47.81119015 306.7627199 49.75 308.75 C53.43069887 307.21356148 55.73775204 304.96849055 58.5 302.125 C59.69882812 300.89910156 59.69882812 300.89910156 60.921875 299.6484375 C61.52515625 299.02195312 62.1284375 298.39546875 62.75 297.75 C60.88370038 293.89827526 59.57960195 291.44228182 55.4375 289.875 C51.79512726 289.70558731 49.81388449 290.84358299 46.75 292.75 Z M13.75 310.75 C12.24110531 313.76778937 12.24973724 315.37322637 12.75 318.75 C14.78847506 321.7075563 17.22230636 324.20717047 19.75 326.75 C20.64138672 327.66265625 20.64138672 327.66265625 21.55078125 328.59375 C22.93509367 329.99458167 24.34031834 331.37470082 25.75 332.75 C29.43069887 331.21356148 31.73775204 328.96849055 34.5 326.125 C35.29921875 325.30773437 36.0984375 324.49046875 36.921875 323.6484375 C37.52515625 323.02195312 38.1284375 322.39546875 38.75 321.75 C37.16948722 317.89750011 34.69555446 315.46095984 31.75 312.5625 C30.863125 311.68207031 29.97625 310.80164063 29.0625 309.89453125 C26.42404371 307.44771959 25.49118911 306.83235435 21.9375 306.4375 C18.0192355 306.82164358 16.53706733 308.04256317 13.75 310.75 Z M88.0625 337.6875 C87.43988281 338.23277344 86.81726563 338.77804687 86.17578125 339.33984375 C85.70527344 339.80519531 85.23476563 340.27054687 84.75 340.75 C84.75 341.08 84.75 341.41 84.75 341.75 C88.68774177 342.11630156 90.31539771 342.05233203 93.625 339.75 C94.32625 339.09 95.0275 338.43 95.75 337.75 C95.42 336.76 95.09 335.77 94.75 334.75 C91.183255 334.75 90.64456323 335.38691955 88.0625 337.6875 Z M1.75 346.75 C0.24110531 349.76778937 0.24973724 351.37322637 0.75 354.75 C2.07363796 356.63868695 2.07363796 356.63868695 3.8190918 358.49047852 C4.45656342 359.19334991 5.09403503 359.89622131 5.75082397 360.62039185 C8.82659123 363.89683121 11.96187463 367.10482177 15.14453125 370.27734375 C15.81796066 370.95172989 16.49139008 371.62611603 17.18522644 372.32093811 C18.5932044 373.72959068 20.00242224 375.13700499 21.4128418 376.54321289 C23.57783604 378.70279773 25.73737256 380.86773882 27.89648438 383.03320312 C29.27051237 384.4065712 30.64485006 385.77962951 32.01953125 387.15234375 C32.66533646 387.80017319 33.31114166 388.44800262 33.97651672 389.11546326 C34.57441513 389.7102095 35.17231354 390.30495575 35.78833008 390.91772461 C36.31348709 391.44208603 36.8386441 391.96644745 37.37971497 392.50669861 C39.46718462 394.40072347 40.72753561 394.74750396 43.5625 395.0625 C47.60211856 394.66645896 49.04729155 393.76158942 51.75 390.75 C53.00411568 387.38825863 53.00411568 387.38825863 52.75 383.75 C49.75009862 378.39630053 45.60984373 374.31877131 41.28125 370.015625 C40.563927 369.29638855 39.846604 368.5771521 39.10754395 367.83612061 C37.59710227 366.32432335 36.08415362 364.81502711 34.56884766 363.30810547 C32.25058618 361.00058346 29.94322357 358.68254817 27.63671875 356.36328125 C26.16470361 354.8925872 24.69206846 353.4225134 23.21875 351.953125 C22.53010864 351.26043518 21.84146729 350.56774536 21.13195801 349.85406494 C20.48448608 349.21289734 19.83701416 348.57172974 19.16992188 347.91113281 C18.60462769 347.34742981 18.0393335 346.78372681 17.45690918 346.20294189 C11.72895652 341.32723879 7.56486336 342.35654768 1.75 346.75 Z M71.75 353.75 C70.98816406 354.45576172 70.98816406 354.45576172 70.2109375 355.17578125 C66.24014136 358.76734405 62.68590001 361.6522425 57.75 363.75 C58.53375 364.719375 59.3175 365.68875 60.125 366.6875 C60.56585938 367.23277344 61.00671875 367.77804687 61.4609375 368.33984375 C63.4201303 370.48308193 64.66008765 370.74000974 67.5625 371.0625 C71.4807645 370.67835642 72.96293267 369.45743683 75.75 366.75 C77.19430855 363.86138291 77.12688506 361.95352299 76.75 358.75 C74.37499209 355.87359384 74.37499209 355.87359384 71.75 353.75 Z M-15.25 375.75 C-17.81205842 379.59308764 -17.92366765 381.1840304 -17.25 385.75 C-15.99599441 387.61382616 -15.99599441 387.61382616 -14.296875 389.3984375 C-13.66209229 390.09509521 -13.02730957 390.79175293 -12.37329102 391.50952148 C-8.62375405 395.46600082 -4.80121449 399.34267898 -0.9375 403.1875 C-0.12732422 404.00154297 0.68285156 404.81558594 1.51757812 405.65429688 C2.29166016 406.42708984 3.06574219 407.19988281 3.86328125 407.99609375 C4.56235596 408.69404053 5.26143066 409.3919873 5.98168945 410.11108398 C8.48452845 412.43077999 9.59334251 412.73226519 13.0625 413.125 C16.85738263 413.06314691 16.85738263 413.06314691 19.625 410.5625 C21.7939103 407.69188342 22.75 406.32518573 22.75 402.75 C20.62293977 398.54939049 17.6746409 395.35354022 14.3828125 392.046875 C13.6079097 391.261987 13.6079097 391.261987 12.81735229 390.46124268 C11.72901145 389.36282365 10.63798646 388.26705832 9.54443359 387.17382812 C7.87653234 385.50153638 6.22529765 383.81388237 4.57421875 382.125 C3.51139866 381.05631417 2.44762809 379.98857258 1.3828125 378.921875 C0.64818283 378.16568878 0.64818283 378.16568878 -0.10128784 377.39422607 C-5.41663049 372.14840742 -8.94677391 371.82799266 -15.25 375.75 Z M-122.25 420.75 C-124.1064979 424.41362085 -125.95776879 428.0798296 -127.80419922 431.74853516 C-128.43329431 432.99665722 -129.06382241 434.24405805 -129.69580078 435.49072266 C-130.60303597 437.28098111 -131.50472596 439.07404628 -132.40625 440.8671875 C-133.22319336 442.48536377 -133.22319336 442.48536377 -134.05664062 444.13623047 C-135.38844199 446.57433958 -135.38844199 446.57433958 -135.25 448.75 C-85.1397044 469.80976656 -28.05276625 468.3914865 22.75 450.75 C18.31969079 440.78545965 8.1271083 430.29246831 -1.25 424.75 C-8.55025784 423.37378028 -15.41724684 426.38900398 -22.22216797 428.80566406 C-27.1458138 430.34127623 -32.06139398 430.76795988 -37.1875 431.125 C-38.17186035 431.19807373 -39.1562207 431.27114746 -40.17041016 431.34643555 C-65.50741825 432.94160636 -89.63511508 429.57732267 -113.86669922 422.36669922 C-116.64044836 421.64896819 -119.4198252 421.18757168 -122.25 420.75 Z " fill="#ff7f11" transform="translate(310.25,16.25)"/>
</svg>
