<?xml version="1.0" encoding="UTF-8"?>
<svg version="1.1" xmlns="http://www.w3.org/2000/svg" width="512" height="512">
<path d="M0 0 C8.51528828 7.17491883 14.44876438 16.0611671 19.34375 26.0078125 C29.10449657 23.03545377 38.86492925 20.06206677 48.62508297 17.08776188 C54.27110621 15.36735794 59.91756794 13.64840168 65.5643301 11.93042469 C83.0056601 6.62337752 100.44504387 1.31339714 117.83984375 -4.14453125 C120.21840108 -4.8880957 122.59698081 -5.63158849 124.97558594 -6.375 C129.21880121 -7.70175138 133.45679652 -9.0436534 137.69238281 -10.39453125 C155.02859518 -15.85846623 171.5212672 -19.93853106 189.0078125 -12.2421875 C201.54395959 -5.53388136 209.80484558 5.27582533 214.59375 18.4453125 C217.47409906 32.12697054 216.56236424 46.32361637 208.84375 58.34375 C201.63967759 68.11594082 192.9122037 75.15166127 181.34375 79.0078125 C182.13434814 79.0171582 182.92494629 79.02650391 183.73950195 79.03613281 C187.37901179 79.0903626 191.01730807 79.17390707 194.65625 79.2578125 C195.89955078 79.27199219 197.14285156 79.28617187 198.42382812 79.30078125 C212.95627807 79.68221038 226.19141744 84.71774338 236.38671875 95.390625 C246.24810695 108.57850941 248.55835399 121.90686319 247.34375 138.0078125 C246.53489455 142.04284571 245.26442873 145.3805245 243.34375 149.0078125 C242.89644531 149.87664062 242.44914062 150.74546875 241.98828125 151.640625 C235.31141639 163.63392114 225.52210546 170.5391061 212.71316528 175.12849426 C206.16020553 176.83862392 199.46577405 176.61349498 192.73828125 176.6171875 C191.1621483 176.63219877 189.58603091 176.648932 188.00993347 176.66729736 C183.89845993 176.7106532 179.78719843 176.73089863 175.67553711 176.74603271 C171.46520613 176.76571955 167.25510039 176.80767579 163.04492188 176.84765625 C154.81125741 176.92261338 146.57768218 176.97311244 138.34375 177.0078125 C138.55528214 177.67757111 138.76681427 178.34732971 138.98475647 179.03738403 C139.39654396 180.36876907 139.39654396 180.36876907 139.81665039 181.72705078 C140.09005753 182.60305939 140.36346466 183.47906799 140.64515686 184.38162231 C141.67158629 188.2402329 141.8371267 191.90852749 141.78125 195.8828125 C141.77295166 196.66019775 141.76465332 197.43758301 141.75610352 198.23852539 C141.4042879 210.33672566 136.72462446 221.3721883 128.2890625 230.14453125 C124.88937898 233.20424641 121.39689904 235.85457707 117.34375 238.0078125 C117.488125 238.52085937 117.6325 239.03390625 117.78125 239.5625 C121.11524514 253.31522994 121.00878367 268.29031663 113.765625 280.71484375 C112.07078634 283.26091894 110.27293292 285.63566268 108.34375 288.0078125 C107.86679687 288.63300781 107.38984375 289.25820313 106.8984375 289.90234375 C101.09671375 296.63052077 90.04788922 302.41363244 81.34375 304.0078125 C78.87332144 304.10735351 76.43093629 304.155638 73.96054077 304.15498352 C73.21436607 304.15866021 72.46819137 304.1623369 71.69940531 304.166125 C69.19722026 304.17714388 66.69507676 304.18100278 64.19287109 304.18481445 C62.39884815 304.19108095 60.60482651 304.19772792 58.81080627 304.20472717 C52.91294253 304.22576516 47.01507856 304.23613609 41.1171875 304.24609375 C39.08194592 304.25014279 37.04670447 304.25425975 35.01146317 304.25844383 C25.43903808 304.2775027 15.86662069 304.29172672 6.29418027 304.3000558 C-4.72260943 304.3098014 -15.73919678 304.33604771 -26.75591528 304.37655669 C-35.28869239 304.40684412 -43.82141196 304.42153698 -52.35424173 304.42483681 C-57.44096061 304.42717487 -62.52746354 304.43597026 -67.6141243 304.46129799 C-72.41259284 304.4848025 -77.21070674 304.48872331 -82.00921822 304.47853661 C-83.75613532 304.47804636 -85.50307121 304.48421291 -87.24993324 304.49809265 C-114.82629921 304.704665 -140.68653715 296.19547389 -161.65625 278.0078125 C-162.46449219 277.34394531 -163.27273437 276.68007813 -164.10546875 275.99609375 C-184.54462363 258.63725107 -196.98353782 233.38748796 -200.65625 207.0078125 C-200.919388 203.16492267 -200.95024175 199.33901257 -200.94677734 195.48803711 C-200.95349457 194.39368347 -200.96021179 193.29932983 -200.96713257 192.17181396 C-200.98599596 188.58454741 -200.99003124 184.9974692 -200.9921875 181.41015625 C-200.99862476 178.89067003 -201.0053538 176.37118453 -201.01235962 173.85169983 C-201.02430422 168.57893675 -201.02812976 163.30622062 -201.02685547 158.03344727 C-201.02578985 152.65376922 -201.03982251 147.27437942 -201.06787109 141.89477539 C-201.10144557 135.35919569 -201.11495894 128.82387355 -201.11363602 122.28820992 C-201.11597525 119.81621399 -201.12470248 117.34421458 -201.14030075 114.87226677 C-201.33701963 80.47038804 -191.72771333 51.04898729 -167.15625 26.1328125 C-162.04694004 21.09459889 -156.79404929 16.76173439 -150.65625 13.0078125 C-149.645625 12.36457031 -148.635 11.72132813 -147.59375 11.05859375 C-106.4890482 -13.91822158 -41.51039979 -31.13279984 0 0 Z M152.55078125 19.546875 C151.2706841 19.94093604 149.99014262 20.33355607 148.709198 20.72485352 C145.24193141 21.78813721 141.78084648 22.87037201 138.32052231 23.95600128 C134.68376643 25.09328755 131.04155297 26.21279763 127.3996582 27.33349609 C122.81909561 28.7442894 118.23915882 30.15701295 113.66160583 31.57754517 C102.38863653 35.07574443 91.10132149 38.52434903 79.8046875 41.9453125 C78.20775155 42.42920653 76.61082259 42.9131236 75.01390076 43.39706421 C71.88589654 44.34485969 68.75783565 45.29246782 65.62973022 46.2399292 C64.86949429 46.47020561 64.10925835 46.70048203 63.32598495 46.93773651 C61.79446082 47.40163569 60.26292851 47.8655079 58.73138809 48.32935333 C54.3599329 49.653581 49.98915547 50.98000402 45.61935806 52.30969238 C44.29369549 52.71266765 42.96779143 53.11484953 41.64162827 53.51617432 C39.82646828 54.06555318 38.01221089 54.61791159 36.19799805 55.17041016 C35.18239304 55.47870758 34.16678802 55.787005 33.1204071 56.10464478 C30.47416661 56.96539168 27.91339517 57.94200347 25.34375 59.0078125 C27.75024203 80.70819707 30.53184147 102.3569512 33.34375 124.0078125 C34.18859451 124.04727493 35.03343903 124.08673737 35.90388489 124.12739563 C44.00322644 124.8253858 50.56861363 126.66537139 57.9440918 130.09448242 C87.67918477 143.77196645 113.16374714 146.46569993 145.6517334 145.41864014 C150.40652481 145.28523304 155.16071656 145.23467065 159.91702747 145.18682575 C165.64957045 145.12811567 171.38138484 145.03700903 177.11328125 144.93359375 C178.7167488 144.90467765 178.7167488 144.90467765 180.35260963 144.87517738 C183.37360377 144.81194491 186.39312646 144.72719392 189.41333008 144.6340332 C190.29053207 144.61654022 191.16773407 144.59904724 192.07151794 144.58102417 C198.17436426 144.35926754 205.22479413 143.78551056 209.97292805 139.55688953 C214.06443796 134.74679483 214.63294141 131.60006619 214.5625 125.48046875 C214.27850594 122.27032155 213.38575136 120.48738558 211.34375 118.0078125 C210.786875 117.2859375 210.23 116.5640625 209.65625 115.8203125 C203.19044888 110.75252243 194.09159741 111.73439736 186.31835938 111.78076172 C185.02971985 111.78046967 183.74108032 111.78017761 182.41339111 111.77987671 C178.90152343 111.77930587 175.38979402 111.79101624 171.8779583 111.80502462 C168.19977404 111.81757716 164.52158616 111.81870603 160.84338379 111.82107544 C153.88792386 111.82727697 146.93252725 111.84366972 139.97709513 111.86377442 C132.05445742 111.88617486 124.1318166 111.89713725 116.20915508 111.90716529 C99.92064974 111.9280372 83.63220796 111.96318721 67.34375 112.0078125 C67.36695313 111.00838623 67.39015625 110.00895996 67.4140625 108.97924805 C67.43283861 107.63851666 67.45103681 106.2977771 67.46875 104.95703125 C67.49195313 103.64822998 67.51515625 102.33942871 67.5390625 100.9909668 C67.28450337 95.79955161 65.98954945 91.60298807 64.21875 86.71484375 C63.34375 84.0078125 63.34375 84.0078125 63.34375 80.0078125 C64.54418945 79.64768066 65.74462891 79.28754883 66.98144531 78.91650391 C68.19581772 78.55215744 68.19581772 78.55215744 69.4347229 78.18045044 C71.30428027 77.61963117 73.17389124 77.05899055 75.04354858 76.49850464 C80.45002986 74.87743492 85.85546354 73.25298799 91.25927734 71.62304688 C102.69244273 68.1784646 114.13257514 64.76575507 125.60327148 61.44857788 C130.38982303 60.06407979 135.17214241 58.66521146 139.95359039 57.26320076 C143.28100093 56.28866563 146.61037723 55.32239422 149.94543457 54.37432861 C153.70220943 53.30632582 157.44877595 52.20497032 161.1953125 51.1015625 C162.30788422 50.7915329 163.42045593 50.4815033 164.56674194 50.16207886 C171.45992603 48.09642436 176.54459319 45.47310803 181.34375 40.0078125 C183.73092164 35.42444295 183.52169783 31.99143794 182.34375 27.0078125 C180.38618897 22.68057232 177.43407989 19.42892621 173.34375 17.0078125 C165.78970926 15.09724692 159.82829302 17.23467823 152.55078125 19.546875 Z M-91.55566406 24.81054688 C-94.64517317 25.7544284 -97.74012074 26.67861047 -100.8359375 27.6015625 C-125.26569731 34.97895019 -145.66969152 46.22795358 -158.65869141 69.12402344 C-168.45717492 87.62747394 -168.81560881 106.57785863 -168.82421875 127.0546875 C-168.82744225 128.8786827 -168.83080709 130.70267766 -168.83430481 132.52667236 C-168.84025607 136.33224079 -168.84214884 140.13778664 -168.84155273 143.94335938 C-168.8414513 148.77177283 -168.85510234 153.60003863 -168.87232494 158.42841721 C-168.88355187 162.19155516 -168.8854687 165.95465861 -168.88494301 169.71781158 C-168.88610714 171.4956437 -168.89043837 173.27347719 -168.89827538 175.05129242 C-169.01172738 203.44076651 -164.42753673 228.28603555 -144.24609375 249.546875 C-123.17796611 269.48451774 -98.34170282 272.18985433 -70.86328125 272.10546875 C-69.06296325 272.10360013 -67.26264474 272.10217832 -65.46232605 272.10118103 C-60.75900836 272.09739082 -56.05572231 272.08759101 -51.35241699 272.07647705 C-46.53898547 272.06618715 -41.72554876 272.06166728 -36.91210938 272.05664062 C-27.4934758 272.04596508 -18.07486555 272.02893144 -8.65625 272.0078125 C-9.13400879 271.28190918 -9.61176758 270.55600586 -10.10400391 269.80810547 C-10.73226074 268.84018066 -11.36051758 267.87225586 -12.0078125 266.875 C-12.62994629 265.92222168 -13.25208008 264.96944336 -13.89306641 263.98779297 C-20.78586809 252.3381755 -22.4477757 239.04149021 -19.53125 225.8828125 C-17.21865187 217.60787606 -13.11107969 210.5936652 -7.65625 204.0078125 C-8.83960938 203.84925781 -10.02296875 203.69070313 -11.2421875 203.52734375 C-26.5767851 201.32973101 -37.16656082 197.11370071 -47.44140625 184.8828125 C-54.45441618 175.12558129 -57.4323414 162.95340271 -60.42578125 151.48828125 C-60.75164719 150.26369705 -61.07751312 149.03911285 -61.41325378 147.77742004 C-62.2649983 144.57151185 -63.11057651 141.36406711 -63.95300293 138.15570068 C-64.81948164 134.86215871 -65.69430594 131.57083509 -66.56835938 128.27929688 C-68.27188536 121.85745068 -69.96727917 115.43350119 -71.65625 109.0078125 C-72.39447998 109.36294922 -73.13270996 109.71808594 -73.89331055 110.08398438 C-75.35957886 110.77331055 -75.35957886 110.77331055 -76.85546875 111.4765625 C-77.82057373 111.93482422 -78.78567871 112.39308594 -79.7800293 112.86523438 C-85.17924235 115.01007073 -89.57034394 114.75559015 -94.96875 112.8203125 C-98.48395834 110.4495906 -100.76265381 107.79500488 -102.65625 104.0078125 C-103.16430471 98.91060792 -103.27489473 94.43338515 -101.21875 89.6953125 C-94.92464552 83.09417854 -86.24327369 78.90949631 -78.28125 74.6328125 C-77.31703125 74.08753906 -76.3528125 73.54226562 -75.359375 72.98046875 C-68.74844883 69.44459805 -63.17306818 67.8232586 -55.65625 69.0078125 C-50.86772069 71.40207716 -47.64251974 74.2989401 -45.79310608 79.37850952 C-45.44897926 80.69814194 -45.44897926 80.69814194 -45.09790039 82.04443359 C-44.83077744 83.05172516 -44.56365448 84.05901672 -44.28843689 85.09683228 C-43.86915672 86.73499405 -43.86915672 86.73499405 -43.44140625 88.40625 C-43.14025406 89.55290131 -42.83910187 90.69955261 -42.52882385 91.88095093 C-40.59940309 99.25784235 -38.7230967 106.64852619 -36.84310913 114.03814697 C-35.58336388 118.98763365 -34.31679131 123.93536274 -33.04907227 128.8828125 C-32.40437035 131.41351054 -31.76583955 133.9457876 -31.13305664 136.47949219 C-30.19825797 140.21488009 -29.24006395 143.94359983 -28.27734375 147.671875 C-28.00216415 148.79582672 -27.72698456 149.91977844 -27.44346619 151.07778931 C-25.35712463 159.02887136 -22.50211803 165.03600539 -15.90625 170.1328125 C-11.05812489 171.43807695 -7.27699963 170.95071038 -2.65625 169.0078125 C0.49807339 166.74992205 2.76372153 164.5654925 4.34375 161.0078125 C4.87205472 154.04942727 4.03926419 147.13377756 3.15380859 140.24072266 C3.02689636 139.21490585 2.89998413 138.18908905 2.76922607 137.13218689 C2.35076656 133.76946357 1.92246464 130.40810549 1.4921875 127.046875 C1.34522053 125.89053936 1.19825356 124.73420372 1.04683304 123.54282761 C0.26908743 117.42669249 -0.51633735 111.31160064 -1.30810547 105.19726562 C-2.12073824 98.91002744 -2.90705759 92.61979289 -3.68734169 86.32847023 C-4.29557082 81.46384221 -4.92339736 76.6018844 -5.55643845 71.74042892 C-5.85472044 69.42351963 -6.1457511 67.10566396 -6.42912674 64.78688431 C-8.38976806 47.54696032 -8.38976806 47.54696032 -15.65625 32.0078125 C-16.21815536 31.10840439 -16.21815536 31.10840439 -16.79141235 30.19082642 C-21.67717981 23.36284235 -30.45722535 19.37910352 -38.41015625 17.47265625 C-42.48663418 16.88890069 -46.47919823 16.72543997 -50.59375 16.6953125 C-51.66592773 16.68685303 -51.66592773 16.68685303 -52.75976562 16.67822266 C-66.23615231 16.85681808 -78.78376514 20.89755786 -91.55566406 24.81054688 Z M36.34375 157.0078125 C36.24578125 157.75804687 36.1478125 158.50828125 36.046875 159.28125 C34.84437354 167.51216515 32.9258094 174.82309555 28.53125 181.9453125 C27.9434375 182.96625 27.9434375 182.96625 27.34375 184.0078125 C27.99721964 187.08540072 27.99721964 187.08540072 30.1987915 188.0562439 C31.01007507 188.372034 31.82135864 188.6878241 32.65722656 189.01318359 C34.03566742 189.55922745 34.03566742 189.55922745 35.44195557 190.11630249 C36.44595398 190.50073517 37.44995239 190.88516785 38.484375 191.28125 C39.51753845 191.68687164 40.5507019 192.09249329 41.61517334 192.51040649 C44.93734267 193.81179209 48.26536657 195.09741428 51.59375 196.3828125 C53.79206597 197.24116555 55.98998773 198.10052894 58.1875 198.9609375 C63.35109158 200.98006214 68.52092791 202.98255138 73.69308472 204.97961426 C76.01105726 205.87876034 78.32430213 206.78844289 80.63500977 207.70605469 C82.35675415 208.38522949 82.35675415 208.38522949 84.11328125 209.078125 C85.04503174 209.44953613 85.97678223 209.82094727 86.93676758 210.20361328 C91.88309651 211.85623601 95.65505975 211.62483394 100.59375 209.8203125 C105.13715361 206.82579648 107.32109389 203.8362779 108.78125 198.6328125 C109.65198192 193.95262843 108.81097682 191.14638652 106.34375 187.0078125 C102.09642391 181.8062252 97.19124078 179.93926671 91.1015625 177.57421875 C90.10099823 177.17379868 89.10043396 176.7733786 88.06954956 176.36082458 C84.87395869 175.08517547 81.67164647 173.82749038 78.46875 172.5703125 C76.35369505 171.72970128 74.23910659 170.88791534 72.125 170.04492188 C68.05184156 168.42255407 63.97528629 166.80925684 59.89550781 165.20361328 C56.45388291 163.84740031 53.02015259 162.4751248 49.59667969 161.07373047 C48.89791718 160.78876205 48.19915466 160.50379364 47.47921753 160.21018982 C45.67453047 159.47196251 43.87207185 158.72829376 42.06982422 157.98413086 C39.35563316 156.83922776 39.35563316 156.83922776 36.34375 157.0078125 Z M14.0234375 228.55078125 C11.07084899 233.06225391 10.75379197 236.69819023 11.34375 242.0078125 C13.4712569 247.83046297 16.7804724 250.75682986 22.30371094 253.45239258 C23.9245459 254.10824341 23.9245459 254.10824341 25.578125 254.77734375 C26.78452637 255.27065186 27.99092773 255.76395996 29.23388672 256.2722168 C30.52037986 256.7885676 31.80700336 257.30459374 33.09375 257.8203125 C34.40800314 258.35321207 35.72196705 258.8868255 37.03564453 259.42114258 C38.9918327 260.21630737 40.94835898 261.01054626 42.90640259 261.8011322 C46.54853699 263.27205163 50.17629174 264.7709214 53.7890625 266.3125 C54.55508789 266.63758545 55.32111328 266.9626709 56.11035156 267.29760742 C57.46112764 267.87273522 58.80967155 268.45315157 60.15527344 269.0402832 C65.35857991 271.23177856 70.90508531 273.06344941 76.40625 271.0078125 C80.9019801 269.07482349 83.89683562 266.23506803 86.34375 262.0078125 C87.82730865 257.76550152 87.53347459 254.69556413 86.34375 250.3828125 C81.57694522 242.33882944 75.22940643 239.93473263 66.6171875 236.9296875 C62.33312871 235.41402771 58.1386479 233.7086841 53.9453125 231.9609375 C52.61148815 231.4094777 51.27758433 230.85821009 49.94360352 230.30712891 C47.93621034 229.4774415 45.93130187 228.64346287 43.93234253 227.79364014 C33.87818621 223.52707131 22.40042026 218.76111205 14.0234375 228.55078125 Z " fill="#ff7f11" transform="translate(232.65625,127.9921875)"/>
</svg>
